<svg width="147" height="72" viewBox="0 0 147 72" fill="none" xmlns="http://www.w3.org/2000/svg">
<g filter="url(#filter0_d_592_10925)">
<g clip-path="url(#clip0_592_10925)">
<path d="M136 1H-68V137H136V1Z" fill="white"/>
<path d="M34 1H0V35H34V1Z" fill="#7F0D35"/>
<path d="M34 35H0V1L34 35Z" fill="#9E1440"/>
<path d="M68 1H34V35H68V1Z" fill="#9E1440"/>
<path d="M68 25.4824H34V29.5488H68V25.4824Z" fill="#E30800"/>
<path d="M68 6.45117H34V10.5176H68V6.45117Z" fill="#E30800"/>
<path d="M68 15.9678H34V20.0342H68V15.9678Z" fill="#E30800"/>
<path d="M102 1H68V35H102V1Z" fill="#FDC4BD"/>
<path d="M136 1H102V35H136V1Z" fill="#E30800"/>
<path d="M102 1H129.948C131.553 1 133.092 1.63762 134.227 2.77259C135.362 3.90756 136 5.44691 136 7.052V35H102V1Z" fill="#7F0D35"/>
<path d="M34 35H0V69H34V35Z" fill="#E30800"/>
<path d="M29.0361 51.5157H17.4815V39.9639H16.5187V51.5157H4.96411V52.4813H16.5187V64.0359H17.4815V52.4813H29.0361V51.5157Z" fill="#FDC4BD"/>
<path d="M25.8509 60.1685L17.6828 52.0003L25.8509 43.8321L25.1682 43.1494L17.0001 51.3176L8.83189 43.1494L8.14917 43.8321L16.3173 52.0003L8.14917 60.1685L8.83189 60.8512L17.0001 52.683L25.1682 60.8512L25.8509 60.1685Z" fill="#FDC4BD"/>
<path d="M28.4267 55.8107L17.6228 51.7198L21.7137 40.916L20.8107 40.5732L16.7198 51.3771L5.91596 47.2862L5.57324 48.1892L16.3771 52.2801L12.2862 63.084L13.1892 63.4267L17.2801 52.6228L28.084 56.7137L28.4267 55.8107Z" fill="#FDC4BD"/>
<path d="M22.3855 62.7741L17.6391 52.2422L28.1709 47.4958L27.7738 46.6145L17.242 51.3609L12.4956 40.8291L11.6143 41.2262L16.3607 51.7581L5.82886 56.5045L6.22598 57.3857L16.7578 52.6393L21.5042 63.1712L22.3855 62.7741Z" fill="#FDC4BD"/>
<path d="M17.0028 44.4004H17.0001C12.8029 44.4004 9.40039 47.8029 9.40039 52.0001V52.0028C9.40039 56.2 12.8029 59.6025 17.0001 59.6025H17.0028C21.2 59.6025 24.6025 56.2 24.6025 52.0028V52.0001C24.6025 47.8029 21.2 44.4004 17.0028 44.4004Z" fill="#7F0D35"/>
<path d="M16.9999 55.5764C16.0513 55.5764 15.1415 55.1996 14.4707 54.5288C13.7999 53.858 13.4231 52.9483 13.4231 51.9997V51.9997C13.4231 51.051 13.7999 50.1413 14.4707 49.4705C15.1415 48.7997 16.0513 48.4229 16.9999 48.4229V48.4229C17.9485 48.4229 18.8583 48.7997 19.5291 49.4705C20.1999 50.1413 20.5767 51.051 20.5767 51.9997C20.5767 52.4694 20.4842 52.9345 20.3044 53.3684C20.1247 53.8024 19.8612 54.1967 19.5291 54.5288C19.1969 54.861 18.8026 55.1244 18.3687 55.3042C17.9347 55.4839 17.4696 55.5764 16.9999 55.5764V55.5764Z" fill="#F76667"/>
<path d="M68 35H34V69H68V35Z" fill="#7F0D35"/>
<path d="M51 44.3301C55.5087 44.3301 59.8327 46.1211 63.0208 49.3093C66.2089 52.4974 68 56.8214 68 61.3301V69.0005H34V61.3301C34 56.8214 35.7911 52.4974 38.9792 49.3093C42.1673 46.1211 46.4913 44.3301 51 44.3301V44.3301Z" fill="#F76667"/>
<path d="M51 64.3438C46.6527 64.3397 42.4701 66.0069 39.3176 69.0004H62.6824C59.5299 66.0069 55.3474 64.3397 51 64.3438V64.3438Z" fill="#FDC4BD"/>
<path d="M50.9999 58.0218C49.6365 58.0218 48.3289 57.4802 47.3648 56.5161C46.4007 55.552 45.8591 54.2445 45.8591 52.881V52.881C45.8591 51.5176 46.4007 50.21 47.3648 49.2459C48.3289 48.2819 49.6365 47.7402 50.9999 47.7402C52.3634 47.7402 53.6709 48.2819 54.635 49.2459C55.5991 50.21 56.1407 51.5176 56.1407 52.881C56.1407 54.2445 55.5991 55.552 54.635 56.5161C53.6709 57.4802 52.3634 58.0218 50.9999 58.0218Z" fill="#9E1440"/>
<path d="M51.0001 52.8811C49.0654 52.8811 47.2098 52.1125 45.8417 50.7444C44.4737 49.3763 43.7051 47.5208 43.7051 45.5861C43.7051 43.6513 44.4737 41.7958 45.8417 40.4277C47.2098 39.0596 49.0654 38.291 51.0001 38.291V38.291C52.9349 38.291 54.7904 39.0596 56.1585 40.4277C57.5266 41.7958 58.2952 43.6513 58.2952 45.5861C58.2952 46.5441 58.1065 47.4927 57.7399 48.3777C57.3732 49.2628 56.8359 50.067 56.1585 50.7444C55.4811 51.4218 54.6769 51.9592 53.7918 52.3258C52.9067 52.6924 51.9581 52.8811 51.0001 52.8811Z" fill="#E30800"/>
<path d="M102 35H68V69H102V35Z" fill="#E30800"/>
<path d="M90.4753 62.7442C89.2513 62.7442 88.0772 62.2589 87.2105 61.3946C86.3437 60.5304 85.8549 59.3578 85.8513 58.1338V58.1338C85.8513 56.9074 86.3385 55.7313 87.2057 54.8641C88.0728 53.9969 89.249 53.5098 90.4753 53.5098V53.5098C91.7017 53.5098 92.8778 53.9969 93.745 54.8641C94.6121 55.7313 95.0993 56.9074 95.0993 58.1338V58.1338C95.0957 59.3578 94.607 60.5304 93.7402 61.3946C92.8734 62.2589 91.6993 62.7442 90.4753 62.7442Z" fill="#9E1440"/>
<path d="M68 35H86.5341C86.5334 39.9151 84.5803 44.6286 81.1046 48.1038C77.6289 51.579 72.9151 53.5314 68 53.5314V53.5314V35Z" fill="#F76667"/>
<g style="mix-blend-mode:multiply" opacity="0.42">
<path d="M68 69V35C77.0174 35 85.6654 38.5821 92.0416 44.9584C98.4179 51.3346 102 59.9826 102 69V69H68Z" fill="#E30800"/>
</g>
<path d="M136 35H102V69H136V35Z" fill="#7F0D35"/>
<path d="M136 35H102V69H136V35Z" fill="#E30800"/>
<path d="M102 35H136V62.472C136 64.2033 135.312 65.8638 134.088 67.088C132.864 68.3122 131.203 69 129.472 69H102V35Z" fill="#7F0D35"/>
<path d="M34 69H0V103H34V69Z" fill="#FFAAA9"/>
<path d="M68 69H34V103H68V69Z" fill="#9E1440"/>
<path d="M34 69H68C68 78.0174 64.4179 86.6654 58.0416 93.0416C51.6654 99.4179 43.0174 103 34 103V103V69Z" fill="#FDC4BD"/>
<path d="M34 69H57.9904C57.9904 75.3626 55.4628 81.4647 50.9638 85.9638C46.4647 90.4628 40.3626 92.9904 34 92.9904V92.9904V69Z" fill="#E30800"/>
<path d="M34 74.663V69H39.663C39.663 70.5019 39.0664 71.9423 38.0044 73.0044C36.9423 74.0664 35.5019 74.663 34 74.663Z" fill="#F76667"/>
<path d="M102 69H68V103H102V69Z" fill="#E30800"/>
<path d="M68 69C77.0174 69 85.6654 72.5821 92.0416 78.9584C98.4179 85.3346 102 93.9826 102 103H68V69Z" fill="#9E1440"/>
<path d="M136 69H102V103H136V69Z" fill="#E30800"/>
<path d="M102 69H136C136 78.0174 132.418 86.6654 126.042 93.0416C119.665 99.4179 111.017 103 102 103V103V69Z" fill="#9E1440"/>
<path d="M102 69H116.4C116.399 72.8186 114.882 76.4805 112.181 79.1804C109.481 81.8802 105.819 83.397 102 83.397V69Z" fill="#FDC4BD"/>
<path d="M26.8492 16.1694H18.7681V8.09375C20.9101 8.09375 22.9645 8.94449 24.4794 10.4589C25.9943 11.9733 26.8457 14.0274 26.8465 16.1694H26.8492Z" fill="#9E1440"/>
<path d="M10.0286 11.0283C13.7264 11.0283 17.2728 12.4973 19.8876 15.112C22.5023 17.7268 23.9713 21.2732 23.9713 24.971V24.971H10.0286V11.0283Z" fill="#E30800"/>
<path d="M15.0823 27.9279H7.00391V19.8604C9.14455 19.8603 11.1977 20.71 12.7124 22.2226C14.227 23.7353 15.0794 25.7872 15.0823 27.9279Z" fill="#FDC4BD"/>
<path d="M72.2295 6.76074C72.088 6.76074 71.9497 6.8027 71.8321 6.8813C71.7145 6.95991 71.6228 7.07163 71.5686 7.20235C71.5145 7.33306 71.5003 7.4769 71.5279 7.61566C71.5555 7.75443 71.6236 7.88189 71.7237 7.98194C71.8237 8.08198 71.9512 8.15011 72.09 8.17772C72.2287 8.20532 72.3726 8.19115 72.5033 8.13701C72.634 8.08286 72.7457 7.99118 72.8243 7.87354C72.9029 7.75589 72.9449 7.61759 72.9449 7.4761C72.9449 7.28638 72.8695 7.10442 72.7354 6.97027C72.6012 6.83611 72.4192 6.76074 72.2295 6.76074V6.76074Z" fill="#7F0D35"/>
<path d="M75.7603 6.76074C75.6188 6.76074 75.4805 6.8027 75.3628 6.8813C75.2452 6.95991 75.1535 7.07163 75.0994 7.20235C75.0452 7.33306 75.0311 7.4769 75.0587 7.61566C75.0863 7.75443 75.1544 7.88189 75.2544 7.98194C75.3545 8.08198 75.4819 8.15011 75.6207 8.17772C75.7595 8.20532 75.9033 8.19115 76.034 8.13701C76.1647 8.08286 76.2765 7.99118 76.3551 7.87354C76.4337 7.75589 76.4756 7.61759 76.4756 7.4761C76.4756 7.28638 76.4003 7.10442 76.2661 6.97027C76.132 6.83611 75.95 6.76074 75.7603 6.76074Z" fill="#7F0D35"/>
<path d="M79.2908 6.76074C79.1493 6.76074 79.011 6.8027 78.8934 6.8813C78.7757 6.95991 78.684 7.07163 78.6299 7.20235C78.5757 7.33306 78.5616 7.4769 78.5892 7.61566C78.6168 7.75443 78.6849 7.88189 78.785 7.98194C78.885 8.08198 79.0125 8.15011 79.1512 8.17772C79.29 8.20532 79.4338 8.19115 79.5646 8.13701C79.6953 8.08286 79.807 7.99118 79.8856 7.87354C79.9642 7.75589 80.0062 7.61759 80.0062 7.4761C80.0054 7.2866 79.9298 7.10506 79.7958 6.97106C79.6618 6.83706 79.4803 6.76146 79.2908 6.76074Z" fill="#7F0D35"/>
<path d="M82.8213 6.76074C82.6798 6.76074 82.5415 6.8027 82.4239 6.8813C82.3063 6.95991 82.2146 7.07163 82.1604 7.20235C82.1063 7.33306 82.0921 7.4769 82.1197 7.61566C82.1473 7.75443 82.2154 7.88189 82.3155 7.98194C82.4155 8.08198 82.543 8.15011 82.6818 8.17772C82.8205 8.20532 82.9644 8.19115 83.0951 8.13701C83.2258 8.08286 83.3375 7.99118 83.4161 7.87354C83.4947 7.75589 83.5367 7.61759 83.5367 7.4761C83.536 7.2866 83.4604 7.10506 83.3264 6.97106C83.1924 6.83706 83.0108 6.76146 82.8213 6.76074Z" fill="#7F0D35"/>
<path d="M86.3491 6.76075C86.2077 6.76128 86.0697 6.8037 85.9524 6.88263C85.8351 6.96156 85.7439 7.07347 85.6901 7.20423C85.6364 7.33499 85.6226 7.47874 85.6506 7.61733C85.6785 7.75591 85.7468 7.88312 85.847 7.9829C85.9471 8.08267 86.0746 8.15053 86.2133 8.17791C86.352 8.2053 86.4957 8.19097 86.6262 8.13675C86.7568 8.08253 86.8683 7.99084 86.9468 7.87326C87.0253 7.75568 87.0672 7.61748 87.0672 7.47611C87.0672 7.38194 87.0486 7.28869 87.0125 7.20172C86.9764 7.11475 86.9234 7.03577 86.8567 6.96931C86.79 6.90284 86.7108 6.85021 86.6237 6.81442C86.5366 6.77863 86.4433 6.76039 86.3491 6.76075V6.76075Z" fill="#7F0D35"/>
<path d="M89.8796 6.76075C89.7383 6.76128 89.6002 6.8037 89.4829 6.88263C89.3657 6.96156 89.2744 7.07347 89.2207 7.20423C89.1669 7.33499 89.1532 7.47874 89.1811 7.61733C89.209 7.75591 89.2773 7.88312 89.3775 7.9829C89.4776 8.08267 89.6051 8.15053 89.7438 8.17791C89.8825 8.2053 90.0262 8.19097 90.1567 8.13675C90.2873 8.08253 90.3989 7.99084 90.4773 7.87326C90.5558 7.75568 90.5977 7.61748 90.5977 7.47611C90.5977 7.38194 90.5791 7.28869 90.543 7.20172C90.5069 7.11475 90.4539 7.03577 90.3872 6.96931C90.3205 6.90284 90.2413 6.85021 90.1542 6.81442C90.0671 6.77863 89.9738 6.76039 89.8796 6.76075V6.76075Z" fill="#7F0D35"/>
<path d="M93.4102 6.76074C93.2687 6.76074 93.1304 6.8027 93.0128 6.8813C92.8951 6.95991 92.8034 7.07163 92.7493 7.20235C92.6951 7.33306 92.681 7.4769 92.7086 7.61566C92.7362 7.75443 92.8043 7.88189 92.9044 7.98194C93.0044 8.08198 93.1319 8.15011 93.2706 8.17772C93.4094 8.20532 93.5532 8.19115 93.6839 8.13701C93.8147 8.08286 93.9264 7.99118 94.005 7.87354C94.0836 7.75589 94.1255 7.61759 94.1255 7.4761C94.1255 7.28638 94.0502 7.10442 93.916 6.97027C93.7819 6.83611 93.5999 6.76074 93.4102 6.76074V6.76074Z" fill="#7F0D35"/>
<path d="M96.9407 8.19146C97.0822 8.19146 97.2205 8.14951 97.3381 8.0709C97.4558 7.9923 97.5475 7.88057 97.6016 7.74986C97.6557 7.61914 97.6699 7.47531 97.6423 7.33654C97.6147 7.19778 97.5466 7.07031 97.4465 6.97027C97.3465 6.87022 97.219 6.80209 97.0803 6.77449C96.9415 6.74689 96.7977 6.76105 96.6669 6.8152C96.5362 6.86934 96.4245 6.96103 96.3459 7.07867C96.2673 7.19631 96.2253 7.33462 96.2253 7.4761C96.2253 7.66583 96.3007 7.84778 96.4349 7.98194C96.569 8.11609 96.751 8.19146 96.9407 8.19146V8.19146Z" fill="#7F0D35"/>
<path d="M72.2295 15.1143C72.6246 15.1143 72.9449 14.794 72.9449 14.399C72.9449 14.0039 72.6246 13.6836 72.2295 13.6836C71.8344 13.6836 71.5142 14.0039 71.5142 14.399C71.5142 14.794 71.8344 15.1143 72.2295 15.1143Z" fill="#7F0D35"/>
<path d="M75.7603 15.1143C76.1554 15.1143 76.4756 14.794 76.4756 14.399C76.4756 14.0039 76.1554 13.6836 75.7603 13.6836C75.3652 13.6836 75.0449 14.0039 75.0449 14.399C75.0449 14.794 75.3652 15.1143 75.7603 15.1143Z" fill="#7F0D35"/>
<path d="M79.2908 13.6836C79.1493 13.6836 79.011 13.7255 78.8934 13.8042C78.7757 13.8828 78.684 13.9945 78.6299 14.1252C78.5757 14.2559 78.5616 14.3997 78.5892 14.5385C78.6168 14.6773 78.6849 14.8047 78.785 14.9048C78.885 15.0048 79.0125 15.073 79.1512 15.1006C79.29 15.1282 79.4338 15.114 79.5646 15.0599C79.6953 15.0057 79.807 14.914 79.8856 14.7964C79.9642 14.6787 80.0062 14.5404 80.0062 14.399C80.0054 14.2094 79.9298 14.0279 79.7958 13.8939C79.6618 13.7599 79.4803 13.6843 79.2908 13.6836V13.6836Z" fill="#7F0D35"/>
<path d="M82.8213 13.6836C82.6798 13.6836 82.5415 13.7255 82.4239 13.8042C82.3063 13.8828 82.2146 13.9945 82.1604 14.1252C82.1063 14.2559 82.0921 14.3997 82.1197 14.5385C82.1473 14.6773 82.2154 14.8047 82.3155 14.9048C82.4155 15.0048 82.543 15.073 82.6818 15.1006C82.8205 15.1282 82.9644 15.114 83.0951 15.0599C83.2258 15.0057 83.3375 14.914 83.4161 14.7964C83.4947 14.6787 83.5367 14.5404 83.5367 14.399C83.536 14.2094 83.4604 14.0279 83.3264 13.8939C83.1924 13.7599 83.0108 13.6843 82.8213 13.6836V13.6836Z" fill="#7F0D35"/>
<path d="M86.4618 15.0935C86.8519 15.0306 87.1171 14.6634 87.0542 14.2734C86.9913 13.8834 86.6241 13.6181 86.2341 13.681C85.844 13.7439 85.5788 14.1111 85.6417 14.5012C85.7046 14.8912 86.0718 15.1564 86.4618 15.0935Z" fill="#7F0D35"/>
<path d="M89.8796 13.6836C89.7383 13.6841 89.6002 13.7265 89.4829 13.8055C89.3657 13.8844 89.2744 13.9963 89.2207 14.1271C89.1669 14.2578 89.1532 14.4016 89.1811 14.5402C89.209 14.6788 89.2773 14.806 89.3775 14.9057C89.4776 15.0055 89.6051 15.0734 89.7438 15.1008C89.8825 15.1281 90.0262 15.1138 90.1567 15.0596C90.2873 15.0054 90.3989 14.9137 90.4773 14.7961C90.5558 14.6785 90.5977 14.5403 90.5977 14.399C90.5977 14.3048 90.5791 14.2115 90.543 14.1246C90.5069 14.0376 90.4539 13.9586 90.3872 13.8922C90.3205 13.8257 90.2413 13.7731 90.1542 13.7373C90.0671 13.7015 89.9738 13.6832 89.8796 13.6836V13.6836Z" fill="#7F0D35"/>
<path d="M93.4102 15.1143C93.8053 15.1143 94.1255 14.794 94.1255 14.399C94.1255 14.0039 93.8053 13.6836 93.4102 13.6836C93.0151 13.6836 92.6948 14.0039 92.6948 14.399C92.6948 14.794 93.0151 15.1143 93.4102 15.1143Z" fill="#7F0D35"/>
<path d="M96.9407 15.1143C97.3358 15.1143 97.6561 14.794 97.6561 14.399C97.6561 14.0039 97.3358 13.6836 96.9407 13.6836C96.5456 13.6836 96.2253 14.0039 96.2253 14.399C96.2253 14.794 96.5456 15.1143 96.9407 15.1143Z" fill="#7F0D35"/>
<path d="M72.2295 22.0362C72.6246 22.0362 72.9449 21.7159 72.9449 21.3208C72.9449 20.9257 72.6246 20.6055 72.2295 20.6055C71.8344 20.6055 71.5142 20.9257 71.5142 21.3208C71.5142 21.7159 71.8344 22.0362 72.2295 22.0362Z" fill="#7F0D35"/>
<path d="M75.7603 22.0362C76.1554 22.0362 76.4756 21.7159 76.4756 21.3208C76.4756 20.9257 76.1554 20.6055 75.7603 20.6055C75.3652 20.6055 75.0449 20.9257 75.0449 21.3208C75.0449 21.7159 75.3652 22.0362 75.7603 22.0362Z" fill="#7F0D35"/>
<path d="M79.2906 20.6055C79.1484 20.6049 79.0092 20.6467 78.8907 20.7254C78.7722 20.8041 78.6797 20.9162 78.625 21.0475C78.5703 21.1788 78.5559 21.3234 78.5835 21.463C78.6111 21.6025 78.6795 21.7307 78.7801 21.8313C78.8807 21.9319 79.0089 22.0003 79.1485 22.028C79.288 22.0556 79.4326 22.0411 79.5639 21.9864C79.6953 21.9318 79.8074 21.8393 79.8861 21.7208C79.9648 21.6023 80.0065 21.4631 80.006 21.3208C80.0053 21.1313 79.9297 20.9498 79.7957 20.8158C79.6617 20.6818 79.4801 20.6062 79.2906 20.6055Z" fill="#7F0D35"/>
<path d="M82.8214 20.6055C82.6791 20.6049 82.5399 20.6467 82.4214 20.7254C82.3029 20.8041 82.2105 20.9162 82.1558 21.0475C82.1011 21.1788 82.0866 21.3234 82.1143 21.463C82.1419 21.6025 82.2103 21.7307 82.3109 21.8313C82.4115 21.9319 82.5397 22.0003 82.6792 22.028C82.8188 22.0556 82.9634 22.0411 83.0947 21.9864C83.226 21.9318 83.3382 21.8393 83.4169 21.7208C83.4956 21.6023 83.5373 21.4631 83.5367 21.3208C83.536 21.1313 83.4604 20.9498 83.3264 20.8158C83.1924 20.6818 83.0109 20.6062 82.8214 20.6055Z" fill="#7F0D35"/>
<path d="M86.4621 22.0173C86.8521 21.9544 87.1173 21.5873 87.0544 21.1972C86.9915 20.8072 86.6244 20.542 86.2343 20.6049C85.8443 20.6678 85.5791 21.0349 85.642 21.425C85.7048 21.815 86.072 22.0802 86.4621 22.0173Z" fill="#7F0D35"/>
<path d="M89.8797 20.6055C89.7376 20.6055 89.5986 20.6477 89.4805 20.7267C89.3623 20.8057 89.2703 20.918 89.216 21.0494C89.1617 21.1808 89.1477 21.3253 89.1756 21.4646C89.2036 21.604 89.2722 21.732 89.3729 21.8323C89.4736 21.9326 89.6018 22.0008 89.7413 22.0282C89.8807 22.0556 90.0252 22.041 90.1564 21.9862C90.2875 21.9314 90.3995 21.839 90.4781 21.7205C90.5567 21.6021 90.5983 21.463 90.5978 21.3208C90.5978 21.2267 90.5792 21.1334 90.5431 21.0464C90.5069 20.9595 90.454 20.8805 90.3873 20.814C90.3206 20.7476 90.2414 20.6949 90.1543 20.6591C90.0672 20.6234 89.9739 20.6051 89.8797 20.6055V20.6055Z" fill="#7F0D35"/>
<path d="M93.4102 22.0362C93.8053 22.0362 94.1255 21.7159 94.1255 21.3208C94.1255 20.9257 93.8053 20.6055 93.4102 20.6055C93.0151 20.6055 92.6948 20.9257 92.6948 21.3208C92.6948 21.7159 93.0151 22.0362 93.4102 22.0362Z" fill="#7F0D35"/>
<path d="M96.9407 22.0362C97.3358 22.0362 97.6561 21.7159 97.6561 21.3208C97.6561 20.9257 97.3358 20.6055 96.9407 20.6055C96.5456 20.6055 96.2253 20.9257 96.2253 21.3208C96.2253 21.7159 96.5456 22.0362 96.9407 22.0362Z" fill="#7F0D35"/>
<path d="M72.2295 28.962C72.6246 28.962 72.9449 28.6417 72.9449 28.2466C72.9449 27.8515 72.6246 27.5312 72.2295 27.5312C71.8344 27.5312 71.5142 27.8515 71.5142 28.2466C71.5142 28.6417 71.8344 28.962 72.2295 28.962Z" fill="#7F0D35"/>
<path d="M75.7603 28.962C76.1554 28.962 76.4756 28.6417 76.4756 28.2466C76.4756 27.8515 76.1554 27.5312 75.7603 27.5312C75.3652 27.5312 75.0449 27.8515 75.0449 28.2466C75.0449 28.6417 75.3652 28.962 75.7603 28.962Z" fill="#7F0D35"/>
<path d="M79.2906 27.5283C79.1485 27.5278 79.0094 27.5694 78.891 27.648C78.7725 27.7266 78.68 27.8386 78.6253 27.9697C78.5705 28.1009 78.5559 28.2453 78.5833 28.3848C78.6107 28.5243 78.6789 28.6525 78.7792 28.7532C78.8795 28.8539 79.0074 28.9226 79.1468 28.9505C79.2862 28.9784 79.4307 28.9644 79.5621 28.9101C79.6934 28.8558 79.8058 28.7638 79.8848 28.6456C79.9638 28.5275 80.006 28.3885 80.006 28.2464C80.006 28.0564 79.9307 27.8742 79.7966 27.7396C79.6626 27.605 79.4806 27.529 79.2906 27.5283Z" fill="#7F0D35"/>
<path d="M82.8214 27.5283C82.6792 27.5278 82.5401 27.5694 82.4217 27.648C82.3033 27.7266 82.2108 27.8386 82.156 27.9697C82.1013 28.1009 82.0867 28.2453 82.1141 28.3848C82.1415 28.5243 82.2096 28.6525 82.3099 28.7532C82.4103 28.8539 82.5382 28.9226 82.6776 28.9505C82.8169 28.9784 82.9615 28.9644 83.0928 28.9101C83.2242 28.8558 83.3365 28.7638 83.4155 28.6456C83.4946 28.5275 83.5367 28.3885 83.5367 28.2464C83.5367 28.0564 83.4615 27.8742 83.3274 27.7396C83.1933 27.605 83.0114 27.529 82.8214 27.5283V27.5283Z" fill="#7F0D35"/>
<path d="M86.4631 28.9412C86.8531 28.8783 87.1183 28.5111 87.0554 28.1211C86.9925 27.731 86.6253 27.4658 86.2353 27.5287C85.8452 27.5916 85.58 27.9588 85.6429 28.3488C85.7058 28.7389 86.073 29.0041 86.4631 28.9412Z" fill="#7F0D35"/>
<path d="M89.8797 27.5283C89.7377 27.5283 89.5988 27.5704 89.4808 27.6493C89.3627 27.7282 89.2706 27.8404 89.2163 27.9716C89.1619 28.1028 89.1477 28.2472 89.1754 28.3865C89.2031 28.5258 89.2715 28.6537 89.3719 28.7542C89.4724 28.8546 89.6003 28.923 89.7396 28.9507C89.8789 28.9784 90.0233 28.9642 90.1545 28.9098C90.2857 28.8555 90.3979 28.7634 90.4768 28.6453C90.5557 28.5273 90.5978 28.3884 90.5978 28.2464C90.5978 28.056 90.5221 27.8733 90.3875 27.7386C90.2528 27.604 90.0702 27.5283 89.8797 27.5283V27.5283Z" fill="#7F0D35"/>
<path d="M93.4102 28.962C93.8053 28.962 94.1255 28.6417 94.1255 28.2466C94.1255 27.8515 93.8053 27.5312 93.4102 27.5312C93.0151 27.5312 92.6948 27.8515 92.6948 28.2466C92.6948 28.6417 93.0151 28.962 93.4102 28.962Z" fill="#7F0D35"/>
<path d="M96.9407 28.962C97.3358 28.962 97.6561 28.6417 97.6561 28.2466C97.6561 27.8515 97.3358 27.5312 96.9407 27.5312C96.5456 27.5312 96.2253 27.8515 96.2253 28.2466C96.2253 28.6417 96.5456 28.962 96.9407 28.962Z" fill="#7F0D35"/>
<path d="M120.531 1H119.098V69H120.531V1Z" fill="#F76667"/>
<path d="M129.301 1H127.867V69H129.301V1Z" fill="#F76667"/>
<path d="M112.366 1H102V69H112.366V1Z" fill="#9E1440"/>
<path d="M34 103H0V69L34 103Z" fill="#E30800"/>
<path d="M108.67 5.6812C108.67 5.97547 108.582 6.26313 108.419 6.5078C108.255 6.75247 108.023 6.94317 107.751 7.05578C107.479 7.1684 107.18 7.19786 106.891 7.14045C106.603 7.08304 106.338 6.94134 106.13 6.73326C105.922 6.52518 105.78 6.26008 105.722 5.97146C105.665 5.68285 105.694 5.38369 105.807 5.11183C105.92 4.83996 106.11 4.60759 106.355 4.44411C106.6 4.28062 106.887 4.19336 107.182 4.19336C107.576 4.19336 107.955 4.35011 108.234 4.62914C108.513 4.90816 108.67 5.2866 108.67 5.6812V5.6812Z" fill="#FDC4BD"/>
<path d="M108.67 10.898C108.67 11.1923 108.582 11.4799 108.419 11.7246C108.255 11.9693 108.023 12.16 107.751 12.2726C107.479 12.3852 107.18 12.4147 106.891 12.3572C106.603 12.2998 106.338 12.1581 106.13 11.9501C105.922 11.742 105.78 11.4769 105.722 11.1883C105.665 10.8996 105.694 10.6005 105.807 10.3286C105.92 10.0568 106.11 9.82439 106.355 9.6609C106.6 9.49742 106.887 9.41016 107.182 9.41016C107.576 9.41016 107.955 9.56691 108.234 9.84593C108.513 10.125 108.67 10.5034 108.67 10.898V10.898Z" fill="#FDC4BD"/>
<path d="M108.67 16.1148C108.67 16.4091 108.582 16.6967 108.419 16.9414C108.255 17.1861 108.023 17.3768 107.751 17.4894C107.479 17.602 107.18 17.6315 106.891 17.574C106.603 17.5166 106.338 17.3749 106.13 17.1669C105.922 16.9588 105.78 16.6937 105.722 16.4051C105.665 16.1164 105.694 15.8173 105.807 15.5454C105.92 15.2736 106.11 15.0412 106.355 14.8777C106.6 14.7142 106.887 14.627 107.182 14.627C107.377 14.6266 107.571 14.6648 107.751 14.7395C107.932 14.8141 108.096 14.9237 108.235 15.0619C108.373 15.2002 108.482 15.3643 108.557 15.545C108.632 15.7257 108.67 15.9193 108.67 16.1148Z" fill="#FDC4BD"/>
<path d="M108.67 21.3345C108.67 21.6288 108.582 21.9164 108.419 22.1611C108.255 22.4058 108.023 22.5965 107.751 22.7091C107.479 22.8217 107.18 22.8512 106.891 22.7938C106.603 22.7364 106.338 22.5947 106.13 22.3866C105.922 22.1785 105.78 21.9134 105.722 21.6248C105.665 21.3362 105.694 21.037 105.807 20.7651C105.92 20.4933 106.11 20.2609 106.355 20.0974C106.6 19.9339 106.887 19.8467 107.182 19.8467C107.576 19.8467 107.955 20.0034 108.234 20.2825C108.513 20.5615 108.67 20.9399 108.67 21.3345V21.3345Z" fill="#FDC4BD"/>
<path d="M108.67 26.5513C108.67 26.8456 108.582 27.1332 108.419 27.3779C108.255 27.6226 108.023 27.8133 107.751 27.9259C107.479 28.0385 107.18 28.068 106.891 28.0106C106.603 27.9532 106.338 27.8115 106.13 27.6034C105.922 27.3953 105.78 27.1302 105.722 26.8416C105.665 26.553 105.694 26.2538 105.807 25.9819C105.92 25.7101 106.11 25.4777 106.355 25.3142C106.6 25.1507 106.887 25.0635 107.182 25.0635C107.576 25.0635 107.955 25.2202 108.234 25.4993C108.513 25.7783 108.67 26.1567 108.67 26.5513V26.5513Z" fill="#FDC4BD"/>
<path d="M108.67 31.7691C108.67 32.0634 108.582 32.351 108.419 32.5957C108.255 32.8404 108.023 33.0311 107.751 33.1437C107.479 33.2563 107.18 33.2857 106.891 33.2283C106.603 33.1709 106.338 33.0292 106.13 32.8212C105.922 32.6131 105.78 32.348 105.722 32.0594C105.665 31.7707 105.694 31.4716 105.807 31.1997C105.92 30.9278 106.11 30.6955 106.355 30.532C106.6 30.3685 106.887 30.2812 107.182 30.2812C107.576 30.2812 107.955 30.438 108.234 30.717C108.513 30.9961 108.67 31.3745 108.67 31.7691V31.7691Z" fill="#FDC4BD"/>
<path d="M108.67 36.9859C108.67 37.2802 108.582 37.5678 108.419 37.8125C108.255 38.0572 108.023 38.2479 107.751 38.3605C107.479 38.4731 107.18 38.5025 106.891 38.4451C106.603 38.3877 106.338 38.246 106.13 38.0379C105.922 37.8299 105.78 37.5648 105.722 37.2761C105.665 36.9875 105.694 36.6884 105.807 36.4165C105.92 36.1446 106.11 35.9123 106.355 35.7488C106.6 35.5853 106.887 35.498 107.182 35.498C107.576 35.498 107.955 35.6548 108.234 35.9338C108.513 36.2128 108.67 36.5913 108.67 36.9859V36.9859Z" fill="#FDC4BD"/>
<path d="M108.67 42.2056C108.67 42.4999 108.582 42.7875 108.419 43.0322C108.255 43.2769 108.023 43.4676 107.751 43.5802C107.479 43.6928 107.18 43.7223 106.891 43.6649C106.603 43.6075 106.338 43.4658 106.13 43.2577C105.922 43.0496 105.78 42.7845 105.722 42.4959C105.665 42.2073 105.694 41.9081 105.807 41.6362C105.92 41.3644 106.11 41.132 106.355 40.9685C106.6 40.805 106.887 40.7178 107.182 40.7178C107.576 40.7178 107.955 40.8745 108.234 41.1536C108.513 41.4326 108.67 41.811 108.67 42.2056V42.2056Z" fill="#FDC4BD"/>
<path d="M108.67 47.4224C108.67 47.7167 108.582 48.0043 108.419 48.249C108.255 48.4937 108.023 48.6844 107.751 48.797C107.479 48.9096 107.18 48.9391 106.891 48.8817C106.603 48.8243 106.338 48.6826 106.13 48.4745C105.922 48.2664 105.78 48.0013 105.722 47.7127C105.665 47.4241 105.694 47.1249 105.807 46.853C105.92 46.5812 106.11 46.3488 106.355 46.1853C106.6 46.0218 106.887 45.9346 107.182 45.9346C107.576 45.9346 107.955 46.0913 108.234 46.3703C108.513 46.6494 108.67 47.0278 108.67 47.4224V47.4224Z" fill="#FDC4BD"/>
<path d="M108.67 52.6392C108.67 52.9335 108.582 53.2211 108.419 53.4658C108.255 53.7105 108.023 53.9012 107.751 54.0138C107.479 54.1264 107.18 54.1559 106.891 54.0985C106.603 54.041 106.338 53.8994 106.13 53.6913C105.922 53.4832 105.78 53.2181 105.722 52.9295C105.665 52.6409 105.694 52.3417 105.807 52.0698C105.92 51.798 106.11 51.5656 106.355 51.4021C106.6 51.2386 106.887 51.1514 107.182 51.1514C107.377 51.151 107.571 51.1893 107.751 51.2639C107.932 51.3385 108.096 51.4481 108.235 51.5863C108.373 51.7246 108.482 51.8887 108.557 52.0694C108.632 52.2501 108.67 52.4437 108.67 52.6392V52.6392Z" fill="#FDC4BD"/>
<path d="M108.67 57.8482C108.67 58.1425 108.582 58.4301 108.419 58.6748C108.255 58.9195 108.023 59.1102 107.751 59.2228C107.479 59.3354 107.18 59.3649 106.891 59.3074C106.603 59.25 106.338 59.1083 106.13 58.9003C105.922 58.6922 105.78 58.4271 105.722 58.1385C105.665 57.8498 105.694 57.5507 105.807 57.2788C105.92 57.007 106.11 56.7746 106.355 56.6111C106.6 56.4476 106.887 56.3604 107.182 56.3604C107.576 56.3604 107.955 56.5171 108.234 56.7961C108.513 57.0752 108.67 57.4536 108.67 57.8482V57.8482Z" fill="#FDC4BD"/>
<path d="M108.67 63.0757C108.67 63.37 108.582 63.6577 108.419 63.9023C108.255 64.147 108.023 64.3377 107.751 64.4503C107.479 64.5629 107.18 64.5924 106.891 64.535C106.603 64.4776 106.338 64.3359 106.13 64.1278C105.922 63.9197 105.78 63.6546 105.722 63.366C105.665 63.0774 105.694 62.7782 105.807 62.5064C105.92 62.2345 106.11 62.0021 106.355 61.8386C106.6 61.6752 106.887 61.5879 107.182 61.5879C107.576 61.5879 107.955 61.7446 108.234 62.0237C108.513 62.3027 108.67 62.6811 108.67 63.0757V63.0757Z" fill="#FDC4BD"/>
<path opacity="0.5" d="M57.9876 3.51074H44.0095V32.4869H57.9876V3.51074Z" fill="#7F0D35"/>
<path d="M51.0788 8.92904C51.4799 8.92904 51.805 8.60389 51.805 8.2028C51.805 7.80171 51.4799 7.47656 51.0788 7.47656C50.6777 7.47656 50.3525 7.80171 50.3525 8.2028C50.3525 8.60389 50.6777 8.92904 51.0788 8.92904Z" fill="#FDC4BD"/>
<path d="M51.0788 28.2435C51.4799 28.2435 51.805 27.9183 51.805 27.5173C51.805 27.1162 51.4799 26.791 51.0788 26.791C50.6777 26.791 50.3525 27.1162 50.3525 27.5173C50.3525 27.9183 50.6777 28.2435 51.0788 28.2435Z" fill="#FDC4BD"/>
<path d="M51.0788 18.7259C51.4799 18.7259 51.805 18.4008 51.805 17.9997C51.805 17.5986 51.4799 17.2734 51.0788 17.2734C50.6777 17.2734 50.3525 17.5986 50.3525 17.9997C50.3525 18.4008 50.6777 18.7259 51.0788 18.7259Z" fill="#FDC4BD"/>
</g>
</g>
<defs>
<filter id="filter0_d_592_10925" x="-11" y="-13" width="158" height="92" filterUnits="userSpaceOnUse" color-interpolation-filters="sRGB">
<feFlood flood-opacity="0" result="BackgroundImageFix"/>
<feColorMatrix in="SourceAlpha" type="matrix" values="0 0 0 0 0 0 0 0 0 0 0 0 0 0 0 0 0 0 127 0" result="hardAlpha"/>
<feOffset dy="-3"/>
<feGaussianBlur stdDeviation="5.5"/>
<feComposite in2="hardAlpha" operator="out"/>
<feColorMatrix type="matrix" values="0 0 0 0 0 0 0 0 0 0 0 0 0 0 0 0 0 0 0.16 0"/>
<feBlend mode="normal" in2="BackgroundImageFix" result="effect1_dropShadow_592_10925"/>
<feBlend mode="normal" in="SourceGraphic" in2="effect1_dropShadow_592_10925" result="shape"/>
</filter>
<clipPath id="clip0_592_10925">
<path d="M0 9C0 4.58172 3.58172 1 8 1H136V71H8C3.58172 71 0 67.4183 0 63V9Z" fill="white"/>
</clipPath>
</defs>
</svg>
