<svg width="147" height="72" viewBox="0 0 147 72" fill="none" xmlns="http://www.w3.org/2000/svg">
<g filter="url(#filter0_d_592_12854)">
<g clip-path="url(#clip0_592_12854)">
<path d="M11 1H215V137H11V1Z" fill="white"/>
<path d="M113 1H147V35H113V1Z" fill="#7F0D35"/>
<path d="M113 35H147V1L113 35Z" fill="#9E1440"/>
<path d="M79 1H113V35H79V1Z" fill="#9E1440"/>
<path d="M79 25.4824H113V29.5488H79V25.4824Z" fill="#E30800"/>
<path d="M79 6.45117H113V10.5176H79V6.45117Z" fill="#E30800"/>
<path d="M79 15.9678H113V20.0342H79V15.9678Z" fill="#E30800"/>
<path d="M45 1H79V35H45V1Z" fill="#FDC4BD"/>
<path d="M11 1H45V35H11V1Z" fill="#E30800"/>
<path d="M45 1H17.052C15.4469 1 13.9076 1.63762 12.7726 2.77259C11.6376 3.90756 11 5.44691 11 7.052V35H45V1Z" fill="#7F0D35"/>
<path d="M113 35H147V69H113V35Z" fill="#E30800"/>
<path d="M117.964 51.5157H129.518V39.9639H130.481V51.5157H142.036V52.4813H130.481V64.0359H129.518V52.4813H117.964V51.5157Z" fill="#FDC4BD"/>
<path d="M121.149 60.1685L129.317 52.0003L121.149 43.8321L121.832 43.1494L130 51.3176L138.168 43.1494L138.851 43.8321L130.683 52.0003L138.851 60.1685L138.168 60.8512L130 52.683L121.832 60.8512L121.149 60.1685Z" fill="#FDC4BD"/>
<path d="M118.573 55.8107L129.377 51.7198L125.286 40.916L126.189 40.5732L130.28 51.3771L141.084 47.2862L141.427 48.1892L130.623 52.2801L134.714 63.084L133.811 63.4267L129.72 52.6228L118.916 56.7137L118.573 55.8107Z" fill="#FDC4BD"/>
<path d="M124.615 62.7741L129.361 52.2422L118.829 47.4958L119.226 46.6145L129.758 51.3609L134.504 40.8291L135.386 41.2262L130.639 51.7581L141.171 56.5045L140.774 57.3857L130.242 52.6393L125.496 63.1712L124.615 62.7741Z" fill="#FDC4BD"/>
<path d="M129.997 44.4004H130C134.197 44.4004 137.6 47.8029 137.6 52.0001V52.0028C137.6 56.2 134.197 59.6025 130 59.6025H129.997C125.8 59.6025 122.398 56.2 122.398 52.0028V52.0001C122.398 47.8029 125.8 44.4004 129.997 44.4004Z" fill="#7F0D35"/>
<path d="M130 55.5764C130.949 55.5764 131.859 55.1996 132.529 54.5288C133.2 53.858 133.577 52.9483 133.577 51.9997V51.9997C133.577 51.051 133.2 50.1413 132.529 49.4705C131.859 48.7997 130.949 48.4229 130 48.4229V48.4229C129.051 48.4229 128.142 48.7997 127.471 49.4705C126.8 50.1413 126.423 51.051 126.423 51.9997C126.423 52.4694 126.516 52.9345 126.696 53.3684C126.875 53.8024 127.139 54.1967 127.471 54.5288C127.803 54.861 128.197 55.1244 128.631 55.3042C129.065 55.4839 129.53 55.5764 130 55.5764V55.5764Z" fill="#F76667"/>
<path d="M79 35H113V69H79V35Z" fill="#7F0D35"/>
<path d="M96 44.3301C91.4913 44.3301 87.1673 46.1211 83.9792 49.3093C80.7911 52.4974 79 56.8214 79 61.3301V69.0005H113V61.3301C113 56.8214 111.209 52.4974 108.021 49.3093C104.833 46.1211 100.509 44.3301 96 44.3301V44.3301Z" fill="#F76667"/>
<path d="M96 64.3438C100.347 64.3397 104.53 66.0069 107.682 69.0004H84.3176C87.4701 66.0069 91.6526 64.3397 96 64.3438V64.3438Z" fill="#FDC4BD"/>
<path d="M96.0001 58.0218C97.3635 58.0218 98.6711 57.4802 99.6352 56.5161C100.599 55.552 101.141 54.2445 101.141 52.881V52.881C101.141 51.5176 100.599 50.21 99.6352 49.2459C98.6711 48.2819 97.3635 47.7402 96.0001 47.7402C94.6366 47.7402 93.3291 48.2819 92.365 49.2459C91.4009 50.21 90.8593 51.5176 90.8593 52.881C90.8593 54.2445 91.4009 55.552 92.365 56.5161C93.3291 57.4802 94.6366 58.0218 96.0001 58.0218Z" fill="#9E1440"/>
<path d="M95.9999 52.8811C97.9346 52.8811 99.7902 52.1125 101.158 50.7444C102.526 49.3763 103.295 47.5208 103.295 45.5861C103.295 43.6513 102.526 41.7958 101.158 40.4277C99.7902 39.0596 97.9346 38.291 95.9999 38.291V38.291C94.0651 38.291 92.2096 39.0596 90.8415 40.4277C89.4734 41.7958 88.7048 43.6513 88.7048 45.5861C88.7048 46.5441 88.8935 47.4927 89.2601 48.3777C89.6268 49.2628 90.1641 50.067 90.8415 50.7444C91.5189 51.4218 92.3231 51.9592 93.2082 52.3258C94.0933 52.6924 95.0419 52.8811 95.9999 52.8811Z" fill="#E30800"/>
<path d="M45 35H79V69H45V35Z" fill="#E30800"/>
<path d="M56.5247 62.7442C57.7487 62.7442 58.9228 62.2589 59.7895 61.3946C60.6563 60.5304 61.1451 59.3578 61.1487 58.1338V58.1338C61.1487 56.9074 60.6615 55.7313 59.7943 54.8641C58.9272 53.9969 57.751 53.5098 56.5247 53.5098V53.5098C55.2983 53.5098 54.1222 53.9969 53.255 54.8641C52.3879 55.7313 51.9007 56.9074 51.9007 58.1338V58.1338C51.9043 59.3578 52.393 60.5304 53.2598 61.3946C54.1266 62.2589 55.3007 62.7442 56.5247 62.7442Z" fill="#9E1440"/>
<path d="M79 35H60.4659C60.4666 39.9151 62.4197 44.6286 65.8954 48.1038C69.3711 51.579 74.0849 53.5314 79 53.5314V53.5314V35Z" fill="#F76667"/>
<g style="mix-blend-mode:multiply" opacity="0.42">
<path d="M79 69V35C69.9826 35 61.3346 38.5821 54.9584 44.9584C48.5821 51.3346 45 59.9826 45 69V69H79Z" fill="#E30800"/>
</g>
<path d="M11 35H45V69H11V35Z" fill="#7F0D35"/>
<path d="M11 35H45V69H11V35Z" fill="#E30800"/>
<path d="M45 35H11V62.472C11 64.2033 11.6878 65.8638 12.912 67.088C14.1362 68.3122 15.7967 69 17.528 69H45V35Z" fill="#7F0D35"/>
<path d="M113 69H147V103H113V69Z" fill="#FFAAA9"/>
<path d="M79 69H113V103H79V69Z" fill="#9E1440"/>
<path d="M113 69H79C79 78.0174 82.5821 86.6654 88.9584 93.0416C95.3346 99.4179 103.983 103 113 103V103V69Z" fill="#FDC4BD"/>
<path d="M113 69H89.0096C89.0096 75.3626 91.5372 81.4647 96.0362 85.9638C100.535 90.4628 106.637 92.9904 113 92.9904V92.9904V69Z" fill="#E30800"/>
<path d="M113 74.663V69H107.337C107.337 70.5019 107.934 71.9423 108.996 73.0044C110.058 74.0664 111.498 74.663 113 74.663Z" fill="#F76667"/>
<path d="M45 69H79V103H45V69Z" fill="#E30800"/>
<path d="M79 69C69.9826 69 61.3346 72.5821 54.9584 78.9584C48.5821 85.3346 45 93.9826 45 103H79V69Z" fill="#9E1440"/>
<path d="M11 69H45V103H11V69Z" fill="#E30800"/>
<path d="M45 69H11C11 78.0174 14.5821 86.6654 20.9584 93.0416C27.3346 99.4179 35.9826 103 45 103V103V69Z" fill="#9E1440"/>
<path d="M45 69H30.6003C30.601 72.8186 32.1185 76.4805 34.8188 79.1804C37.5192 81.8802 41.1814 83.397 45 83.397V69Z" fill="#FDC4BD"/>
<path d="M120.151 16.1694H128.232V8.09375C126.09 8.09375 124.036 8.94449 122.521 10.4589C121.006 11.9733 120.154 14.0274 120.154 16.1694H120.151Z" fill="#9E1440"/>
<path d="M136.971 11.0283C133.274 11.0283 129.727 12.4973 127.112 15.112C124.498 17.7268 123.029 21.2732 123.029 24.971V24.971H136.971V11.0283Z" fill="#E30800"/>
<path d="M131.918 27.9279H139.996V19.8604C137.855 19.8603 135.802 20.71 134.288 22.2226C132.773 23.7353 131.921 25.7872 131.918 27.9279Z" fill="#FDC4BD"/>
<path d="M74.7705 6.76074C74.912 6.76074 75.0503 6.8027 75.1679 6.8813C75.2855 6.95991 75.3772 7.07163 75.4314 7.20235C75.4855 7.33306 75.4997 7.4769 75.4721 7.61566C75.4445 7.75443 75.3764 7.88189 75.2763 7.98194C75.1763 8.08198 75.0488 8.15011 74.91 8.17772C74.7713 8.20532 74.6274 8.19115 74.4967 8.13701C74.366 8.08286 74.2543 7.99118 74.1757 7.87354C74.0971 7.75589 74.0551 7.61759 74.0551 7.4761C74.0551 7.28638 74.1305 7.10442 74.2646 6.97027C74.3988 6.83611 74.5808 6.76074 74.7705 6.76074V6.76074Z" fill="#7F0D35"/>
<path d="M71.2397 6.76074C71.3812 6.76074 71.5195 6.8027 71.6372 6.8813C71.7548 6.95991 71.8465 7.07163 71.9006 7.20235C71.9548 7.33306 71.9689 7.4769 71.9413 7.61566C71.9137 7.75443 71.8456 7.88189 71.7456 7.98194C71.6455 8.08198 71.5181 8.15011 71.3793 8.17772C71.2405 8.20532 71.0967 8.19115 70.966 8.13701C70.8353 8.08286 70.7235 7.99118 70.6449 7.87354C70.5663 7.75589 70.5244 7.61759 70.5244 7.4761C70.5244 7.28638 70.5997 7.10442 70.7339 6.97027C70.868 6.83611 71.05 6.76074 71.2397 6.76074Z" fill="#7F0D35"/>
<path d="M67.7092 6.76074C67.8507 6.76074 67.989 6.8027 68.1066 6.8813C68.2243 6.95991 68.316 7.07163 68.3701 7.20235C68.4243 7.33306 68.4384 7.4769 68.4108 7.61566C68.3832 7.75443 68.3151 7.88189 68.215 7.98194C68.115 8.08198 67.9875 8.15011 67.8488 8.17772C67.71 8.20532 67.5662 8.19115 67.4354 8.13701C67.3047 8.08286 67.193 7.99118 67.1144 7.87354C67.0358 7.75589 66.9938 7.61759 66.9938 7.4761C66.9946 7.2866 67.0702 7.10506 67.2042 6.97106C67.3382 6.83706 67.5197 6.76146 67.7092 6.76074Z" fill="#7F0D35"/>
<path d="M64.1787 6.76074C64.3202 6.76074 64.4585 6.8027 64.5761 6.8813C64.6937 6.95991 64.7854 7.07163 64.8396 7.20235C64.8937 7.33306 64.9079 7.4769 64.8803 7.61566C64.8527 7.75443 64.7846 7.88189 64.6845 7.98194C64.5845 8.08198 64.457 8.15011 64.3182 8.17772C64.1795 8.20532 64.0356 8.19115 63.9049 8.13701C63.7742 8.08286 63.6625 7.99118 63.5839 7.87354C63.5053 7.75589 63.4633 7.61759 63.4633 7.4761C63.464 7.2866 63.5396 7.10506 63.6736 6.97106C63.8076 6.83706 63.9892 6.76146 64.1787 6.76074Z" fill="#7F0D35"/>
<path d="M60.6509 6.76075C60.7923 6.76128 60.9303 6.8037 61.0476 6.88263C61.1649 6.96156 61.2561 7.07347 61.3099 7.20423C61.3636 7.33499 61.3774 7.47874 61.3494 7.61733C61.3215 7.75591 61.2532 7.88312 61.153 7.9829C61.0529 8.08267 60.9254 8.15053 60.7867 8.17791C60.648 8.2053 60.5043 8.19097 60.3738 8.13675C60.2432 8.08253 60.1317 7.99084 60.0532 7.87326C59.9747 7.75568 59.9328 7.61748 59.9328 7.47611C59.9328 7.38194 59.9514 7.28869 59.9875 7.20172C60.0236 7.11475 60.0766 7.03577 60.1433 6.96931C60.21 6.90284 60.2892 6.85021 60.3763 6.81442C60.4634 6.77863 60.5567 6.76039 60.6509 6.76075V6.76075Z" fill="#7F0D35"/>
<path d="M57.1204 6.76075C57.2617 6.76128 57.3998 6.8037 57.5171 6.88263C57.6343 6.96156 57.7256 7.07347 57.7793 7.20423C57.8331 7.33499 57.8468 7.47874 57.8189 7.61733C57.791 7.75591 57.7227 7.88312 57.6225 7.9829C57.5224 8.08267 57.3949 8.15053 57.2562 8.17791C57.1175 8.2053 56.9738 8.19097 56.8433 8.13675C56.7127 8.08253 56.6011 7.99084 56.5227 7.87326C56.4442 7.75568 56.4023 7.61748 56.4023 7.47611C56.4023 7.38194 56.4209 7.28869 56.457 7.20172C56.4931 7.11475 56.5461 7.03577 56.6128 6.96931C56.6795 6.90284 56.7587 6.85021 56.8458 6.81442C56.9329 6.77863 57.0262 6.76039 57.1204 6.76075V6.76075Z" fill="#7F0D35"/>
<path d="M53.5898 6.76074C53.7313 6.76074 53.8696 6.8027 53.9872 6.8813C54.1049 6.95991 54.1966 7.07163 54.2507 7.20235C54.3049 7.33306 54.319 7.4769 54.2914 7.61566C54.2638 7.75443 54.1957 7.88189 54.0956 7.98194C53.9956 8.08198 53.8681 8.15011 53.7294 8.17772C53.5906 8.20532 53.4468 8.19115 53.3161 8.13701C53.1853 8.08286 53.0736 7.99118 52.995 7.87354C52.9164 7.75589 52.8745 7.61759 52.8745 7.4761C52.8745 7.28638 52.9498 7.10442 53.084 6.97027C53.2181 6.83611 53.4001 6.76074 53.5898 6.76074V6.76074Z" fill="#7F0D35"/>
<path d="M50.0593 8.19146C49.9178 8.19146 49.7795 8.14951 49.6619 8.0709C49.5442 7.9923 49.4525 7.88057 49.3984 7.74986C49.3443 7.61914 49.3301 7.47531 49.3577 7.33654C49.3853 7.19778 49.4534 7.07031 49.5535 6.97027C49.6535 6.87022 49.781 6.80209 49.9197 6.77449C50.0585 6.74689 50.2023 6.76105 50.3331 6.8152C50.4638 6.86934 50.5755 6.96103 50.6541 7.07867C50.7327 7.19631 50.7747 7.33462 50.7747 7.4761C50.7747 7.66583 50.6993 7.84778 50.5651 7.98194C50.431 8.11609 50.249 8.19146 50.0593 8.19146V8.19146Z" fill="#7F0D35"/>
<path d="M74.7705 15.1143C74.3754 15.1143 74.0551 14.794 74.0551 14.399C74.0551 14.0039 74.3754 13.6836 74.7705 13.6836C75.1656 13.6836 75.4858 14.0039 75.4858 14.399C75.4858 14.794 75.1656 15.1143 74.7705 15.1143Z" fill="#7F0D35"/>
<path d="M71.2397 15.1143C70.8446 15.1143 70.5244 14.794 70.5244 14.399C70.5244 14.0039 70.8446 13.6836 71.2397 13.6836C71.6348 13.6836 71.9551 14.0039 71.9551 14.399C71.9551 14.794 71.6348 15.1143 71.2397 15.1143Z" fill="#7F0D35"/>
<path d="M67.7092 13.6836C67.8507 13.6836 67.989 13.7255 68.1066 13.8042C68.2243 13.8828 68.316 13.9945 68.3701 14.1252C68.4243 14.2559 68.4384 14.3997 68.4108 14.5385C68.3832 14.6773 68.3151 14.8047 68.215 14.9048C68.115 15.0048 67.9875 15.073 67.8488 15.1006C67.71 15.1282 67.5662 15.114 67.4354 15.0599C67.3047 15.0057 67.193 14.914 67.1144 14.7964C67.0358 14.6787 66.9938 14.5404 66.9938 14.399C66.9946 14.2094 67.0702 14.0279 67.2042 13.8939C67.3382 13.7599 67.5197 13.6843 67.7092 13.6836V13.6836Z" fill="#7F0D35"/>
<path d="M64.1787 13.6836C64.3202 13.6836 64.4585 13.7255 64.5761 13.8042C64.6937 13.8828 64.7854 13.9945 64.8396 14.1252C64.8937 14.2559 64.9079 14.3997 64.8803 14.5385C64.8527 14.6773 64.7846 14.8047 64.6845 14.9048C64.5845 15.0048 64.457 15.073 64.3182 15.1006C64.1795 15.1282 64.0356 15.114 63.9049 15.0599C63.7742 15.0057 63.6625 14.914 63.5839 14.7964C63.5053 14.6787 63.4633 14.5404 63.4633 14.399C63.464 14.2094 63.5396 14.0279 63.6736 13.8939C63.8076 13.7599 63.9892 13.6843 64.1787 13.6836V13.6836Z" fill="#7F0D35"/>
<path d="M60.5382 15.0935C60.1481 15.0306 59.8829 14.6634 59.9458 14.2734C60.0087 13.8834 60.3759 13.6181 60.7659 13.681C61.156 13.7439 61.4212 14.1111 61.3583 14.5012C61.2954 14.8912 60.9282 15.1564 60.5382 15.0935Z" fill="#7F0D35"/>
<path d="M57.1204 13.6836C57.2617 13.6841 57.3998 13.7265 57.5171 13.8055C57.6343 13.8844 57.7256 13.9963 57.7793 14.1271C57.8331 14.2578 57.8468 14.4016 57.8189 14.5402C57.791 14.6788 57.7227 14.806 57.6225 14.9057C57.5224 15.0055 57.3949 15.0734 57.2562 15.1008C57.1175 15.1281 56.9738 15.1138 56.8433 15.0596C56.7127 15.0054 56.6011 14.9137 56.5227 14.7961C56.4442 14.6785 56.4023 14.5403 56.4023 14.399C56.4023 14.3048 56.4209 14.2115 56.457 14.1246C56.4931 14.0376 56.5461 13.9586 56.6128 13.8922C56.6795 13.8257 56.7587 13.7731 56.8458 13.7373C56.9329 13.7015 57.0262 13.6832 57.1204 13.6836V13.6836Z" fill="#7F0D35"/>
<path d="M53.5898 15.1143C53.1947 15.1143 52.8745 14.794 52.8745 14.399C52.8745 14.0039 53.1947 13.6836 53.5898 13.6836C53.9849 13.6836 54.3052 14.0039 54.3052 14.399C54.3052 14.794 53.9849 15.1143 53.5898 15.1143Z" fill="#7F0D35"/>
<path d="M50.0593 15.1143C49.6642 15.1143 49.3439 14.794 49.3439 14.399C49.3439 14.0039 49.6642 13.6836 50.0593 13.6836C50.4544 13.6836 50.7747 14.0039 50.7747 14.399C50.7747 14.794 50.4544 15.1143 50.0593 15.1143Z" fill="#7F0D35"/>
<path d="M74.7705 22.0362C74.3754 22.0362 74.0551 21.7159 74.0551 21.3208C74.0551 20.9257 74.3754 20.6055 74.7705 20.6055C75.1656 20.6055 75.4858 20.9257 75.4858 21.3208C75.4858 21.7159 75.1656 22.0362 74.7705 22.0362Z" fill="#7F0D35"/>
<path d="M71.2397 22.0362C70.8446 22.0362 70.5244 21.7159 70.5244 21.3208C70.5244 20.9257 70.8446 20.6055 71.2397 20.6055C71.6348 20.6055 71.9551 20.9257 71.9551 21.3208C71.9551 21.7159 71.6348 22.0362 71.2397 22.0362Z" fill="#7F0D35"/>
<path d="M67.7094 20.6055C67.8516 20.6049 67.9908 20.6467 68.1093 20.7254C68.2278 20.8041 68.3203 20.9162 68.375 21.0475C68.4297 21.1788 68.4441 21.3234 68.4165 21.463C68.3889 21.6025 68.3205 21.7307 68.2199 21.8313C68.1193 21.9319 67.9911 22.0003 67.8515 22.028C67.712 22.0556 67.5674 22.0411 67.4361 21.9864C67.3047 21.9318 67.1926 21.8393 67.1139 21.7208C67.0352 21.6023 66.9935 21.4631 66.994 21.3208C66.9947 21.1313 67.0703 20.9498 67.2043 20.8158C67.3383 20.6818 67.5199 20.6062 67.7094 20.6055Z" fill="#7F0D35"/>
<path d="M64.1786 20.6055C64.3209 20.6049 64.4601 20.6467 64.5786 20.7254C64.6971 20.8041 64.7895 20.9162 64.8442 21.0475C64.8989 21.1788 64.9134 21.3234 64.8857 21.463C64.8581 21.6025 64.7897 21.7307 64.6891 21.8313C64.5885 21.9319 64.4603 22.0003 64.3208 22.028C64.1812 22.0556 64.0366 22.0411 63.9053 21.9864C63.774 21.9318 63.6618 21.8393 63.5831 21.7208C63.5044 21.6023 63.4627 21.4631 63.4633 21.3208C63.464 21.1313 63.5396 20.9498 63.6736 20.8158C63.8076 20.6818 63.9891 20.6062 64.1786 20.6055Z" fill="#7F0D35"/>
<path d="M60.5379 22.0173C60.1479 21.9544 59.8827 21.5873 59.9456 21.1972C60.0085 20.8072 60.3756 20.542 60.7657 20.6049C61.1557 20.6678 61.4209 21.0349 61.358 21.425C61.2952 21.815 60.928 22.0802 60.5379 22.0173Z" fill="#7F0D35"/>
<path d="M57.1203 20.6055C57.2624 20.6055 57.4014 20.6477 57.5195 20.7267C57.6377 20.8057 57.7297 20.918 57.784 21.0494C57.8383 21.1808 57.8523 21.3253 57.8244 21.4646C57.7964 21.604 57.7278 21.732 57.6271 21.8323C57.5264 21.9326 57.3982 22.0008 57.2587 22.0282C57.1193 22.0556 56.9748 22.041 56.8436 21.9862C56.7125 21.9314 56.6005 21.839 56.5219 21.7205C56.4433 21.6021 56.4017 21.463 56.4022 21.3208C56.4022 21.2267 56.4208 21.1334 56.4569 21.0464C56.4931 20.9595 56.546 20.8805 56.6127 20.814C56.6794 20.7476 56.7586 20.6949 56.8457 20.6591C56.9328 20.6234 57.0261 20.6051 57.1203 20.6055V20.6055Z" fill="#7F0D35"/>
<path d="M53.5898 22.0362C53.1947 22.0362 52.8745 21.7159 52.8745 21.3208C52.8745 20.9257 53.1947 20.6055 53.5898 20.6055C53.9849 20.6055 54.3052 20.9257 54.3052 21.3208C54.3052 21.7159 53.9849 22.0362 53.5898 22.0362Z" fill="#7F0D35"/>
<path d="M50.0593 22.0362C49.6642 22.0362 49.3439 21.7159 49.3439 21.3208C49.3439 20.9257 49.6642 20.6055 50.0593 20.6055C50.4544 20.6055 50.7747 20.9257 50.7747 21.3208C50.7747 21.7159 50.4544 22.0362 50.0593 22.0362Z" fill="#7F0D35"/>
<path d="M74.7705 28.962C74.3754 28.962 74.0551 28.6417 74.0551 28.2466C74.0551 27.8515 74.3754 27.5312 74.7705 27.5312C75.1656 27.5312 75.4858 27.8515 75.4858 28.2466C75.4858 28.6417 75.1656 28.962 74.7705 28.962Z" fill="#7F0D35"/>
<path d="M71.2397 28.962C70.8446 28.962 70.5244 28.6417 70.5244 28.2466C70.5244 27.8515 70.8446 27.5312 71.2397 27.5312C71.6348 27.5312 71.9551 27.8515 71.9551 28.2466C71.9551 28.6417 71.6348 28.962 71.2397 28.962Z" fill="#7F0D35"/>
<path d="M67.7094 27.5283C67.8515 27.5278 67.9906 27.5694 68.109 27.648C68.2275 27.7266 68.32 27.8386 68.3747 27.9697C68.4295 28.1009 68.4441 28.2453 68.4167 28.3848C68.3893 28.5243 68.3211 28.6525 68.2208 28.7532C68.1205 28.8539 67.9926 28.9226 67.8532 28.9505C67.7138 28.9784 67.5693 28.9644 67.4379 28.9101C67.3066 28.8558 67.1942 28.7638 67.1152 28.6456C67.0362 28.5275 66.994 28.3885 66.994 28.2464C66.994 28.0564 67.0693 27.8742 67.2034 27.7396C67.3374 27.605 67.5194 27.529 67.7094 27.5283Z" fill="#7F0D35"/>
<path d="M64.1786 27.5283C64.3208 27.5278 64.4599 27.5694 64.5783 27.648C64.6967 27.7266 64.7892 27.8386 64.844 27.9697C64.8987 28.1009 64.9133 28.2453 64.8859 28.3848C64.8585 28.5243 64.7904 28.6525 64.6901 28.7532C64.5897 28.8539 64.4618 28.9226 64.3224 28.9505C64.1831 28.9784 64.0385 28.9644 63.9072 28.9101C63.7758 28.8558 63.6635 28.7638 63.5845 28.6456C63.5054 28.5275 63.4633 28.3885 63.4633 28.2464C63.4633 28.0564 63.5385 27.8742 63.6726 27.7396C63.8067 27.605 63.9886 27.529 64.1786 27.5283V27.5283Z" fill="#7F0D35"/>
<path d="M60.5369 28.9412C60.1469 28.8783 59.8817 28.5111 59.9446 28.1211C60.0075 27.731 60.3747 27.4658 60.7647 27.5287C61.1548 27.5916 61.42 27.9588 61.3571 28.3488C61.2942 28.7389 60.927 29.0041 60.5369 28.9412Z" fill="#7F0D35"/>
<path d="M57.1203 27.5283C57.2623 27.5283 57.4012 27.5704 57.5192 27.6493C57.6373 27.7282 57.7294 27.8404 57.7837 27.9716C57.8381 28.1028 57.8523 28.2472 57.8246 28.3865C57.7969 28.5258 57.7285 28.6537 57.6281 28.7542C57.5276 28.8546 57.3997 28.923 57.2604 28.9507C57.1211 28.9784 56.9767 28.9642 56.8455 28.9098C56.7143 28.8555 56.6021 28.7634 56.5232 28.6453C56.4443 28.5273 56.4022 28.3884 56.4022 28.2464C56.4022 28.056 56.4779 27.8733 56.6125 27.7386C56.7472 27.604 56.9298 27.5283 57.1203 27.5283V27.5283Z" fill="#7F0D35"/>
<path d="M53.5898 28.962C53.1947 28.962 52.8745 28.6417 52.8745 28.2466C52.8745 27.8515 53.1947 27.5312 53.5898 27.5312C53.9849 27.5312 54.3052 27.8515 54.3052 28.2466C54.3052 28.6417 53.9849 28.962 53.5898 28.962Z" fill="#7F0D35"/>
<path d="M50.0593 28.962C49.6642 28.962 49.3439 28.6417 49.3439 28.2466C49.3439 27.8515 49.6642 27.5312 50.0593 27.5312C50.4544 27.5312 50.7747 27.8515 50.7747 28.2466C50.7747 28.6417 50.4544 28.962 50.0593 28.962Z" fill="#7F0D35"/>
<path d="M26.4687 1H27.9021V69H26.4687V1Z" fill="#F76667"/>
<path d="M17.6994 1H19.1328V69H17.6994V1Z" fill="#F76667"/>
<path d="M34.6341 1H45V69H34.6341V1Z" fill="#9E1440"/>
<path d="M113 103H147V69L113 103Z" fill="#E30800"/>
<path d="M38.3305 5.6812C38.3305 5.97547 38.4177 6.26313 38.5812 6.5078C38.7447 6.75247 38.9771 6.94317 39.249 7.05578C39.5208 7.1684 39.82 7.19786 40.1086 7.14045C40.3972 7.08304 40.6623 6.94134 40.8704 6.73326C41.0785 6.52518 41.2202 6.26008 41.2776 5.97146C41.335 5.68285 41.3055 5.38369 41.1929 5.11183C41.0803 4.83996 40.8896 4.60759 40.6449 4.44411C40.4002 4.28062 40.1126 4.19336 39.8183 4.19336C39.4237 4.19336 39.0453 4.35011 38.7663 4.62914C38.4872 4.90816 38.3305 5.2866 38.3305 5.6812V5.6812Z" fill="#FDC4BD"/>
<path d="M38.3305 10.898C38.3305 11.1923 38.4177 11.4799 38.5812 11.7246C38.7447 11.9693 38.9771 12.16 39.249 12.2726C39.5208 12.3852 39.82 12.4147 40.1086 12.3572C40.3972 12.2998 40.6623 12.1581 40.8704 11.9501C41.0785 11.742 41.2202 11.4769 41.2776 11.1883C41.335 10.8996 41.3055 10.6005 41.1929 10.3286C41.0803 10.0568 40.8896 9.82439 40.6449 9.6609C40.4002 9.49742 40.1126 9.41016 39.8183 9.41016C39.4237 9.41016 39.0453 9.56691 38.7663 9.84593C38.4872 10.125 38.3305 10.5034 38.3305 10.898V10.898Z" fill="#FDC4BD"/>
<path d="M38.3305 16.1148C38.3305 16.4091 38.4177 16.6967 38.5812 16.9414C38.7447 17.1861 38.9771 17.3768 39.249 17.4894C39.5208 17.602 39.82 17.6315 40.1086 17.574C40.3972 17.5166 40.6623 17.3749 40.8704 17.1669C41.0785 16.9588 41.2202 16.6937 41.2776 16.4051C41.335 16.1164 41.3055 15.8173 41.1929 15.5454C41.0803 15.2736 40.8896 15.0412 40.6449 14.8777C40.4002 14.7142 40.1126 14.627 39.8183 14.627C39.6228 14.6266 39.4292 14.6648 39.2485 14.7395C39.0678 14.8141 38.9037 14.9237 38.7654 15.0619C38.6272 15.2002 38.5176 15.3643 38.443 15.545C38.3684 15.7257 38.3301 15.9193 38.3305 16.1148Z" fill="#FDC4BD"/>
<path d="M38.3305 21.3345C38.3305 21.6288 38.4177 21.9164 38.5812 22.1611C38.7447 22.4058 38.9771 22.5965 39.249 22.7091C39.5208 22.8217 39.82 22.8512 40.1086 22.7938C40.3972 22.7364 40.6623 22.5947 40.8704 22.3866C41.0785 22.1785 41.2202 21.9134 41.2776 21.6248C41.335 21.3362 41.3055 21.037 41.1929 20.7651C41.0803 20.4933 40.8896 20.2609 40.6449 20.0974C40.4002 19.9339 40.1126 19.8467 39.8183 19.8467C39.4237 19.8467 39.0453 20.0034 38.7663 20.2825C38.4872 20.5615 38.3305 20.9399 38.3305 21.3345V21.3345Z" fill="#FDC4BD"/>
<path d="M38.3305 26.5513C38.3305 26.8456 38.4177 27.1332 38.5812 27.3779C38.7447 27.6226 38.9771 27.8133 39.249 27.9259C39.5208 28.0385 39.82 28.068 40.1086 28.0106C40.3972 27.9532 40.6623 27.8115 40.8704 27.6034C41.0785 27.3953 41.2202 27.1302 41.2776 26.8416C41.335 26.553 41.3055 26.2538 41.1929 25.9819C41.0803 25.7101 40.8896 25.4777 40.6449 25.3142C40.4002 25.1507 40.1126 25.0635 39.8183 25.0635C39.4237 25.0635 39.0453 25.2202 38.7663 25.4993C38.4872 25.7783 38.3305 26.1567 38.3305 26.5513V26.5513Z" fill="#FDC4BD"/>
<path d="M38.3305 31.7691C38.3305 32.0634 38.4177 32.351 38.5812 32.5957C38.7447 32.8404 38.9771 33.0311 39.249 33.1437C39.5208 33.2563 39.82 33.2857 40.1086 33.2283C40.3972 33.1709 40.6623 33.0292 40.8704 32.8212C41.0785 32.6131 41.2202 32.348 41.2776 32.0594C41.335 31.7707 41.3055 31.4716 41.1929 31.1997C41.0803 30.9278 40.8896 30.6955 40.6449 30.532C40.4002 30.3685 40.1126 30.2812 39.8183 30.2812C39.4237 30.2812 39.0453 30.438 38.7663 30.717C38.4872 30.9961 38.3305 31.3745 38.3305 31.7691V31.7691Z" fill="#FDC4BD"/>
<path d="M38.3305 36.9859C38.3305 37.2802 38.4177 37.5678 38.5812 37.8125C38.7447 38.0572 38.9771 38.2479 39.249 38.3605C39.5208 38.4731 39.82 38.5025 40.1086 38.4451C40.3972 38.3877 40.6623 38.246 40.8704 38.0379C41.0785 37.8299 41.2202 37.5648 41.2776 37.2761C41.335 36.9875 41.3055 36.6884 41.1929 36.4165C41.0803 36.1446 40.8896 35.9123 40.6449 35.7488C40.4002 35.5853 40.1126 35.498 39.8183 35.498C39.4237 35.498 39.0453 35.6548 38.7663 35.9338C38.4872 36.2128 38.3305 36.5913 38.3305 36.9859V36.9859Z" fill="#FDC4BD"/>
<path d="M38.3305 42.2056C38.3305 42.4999 38.4177 42.7875 38.5812 43.0322C38.7447 43.2769 38.9771 43.4676 39.249 43.5802C39.5208 43.6928 39.82 43.7223 40.1086 43.6649C40.3972 43.6075 40.6623 43.4658 40.8704 43.2577C41.0785 43.0496 41.2202 42.7845 41.2776 42.4959C41.335 42.2073 41.3055 41.9081 41.1929 41.6362C41.0803 41.3644 40.8896 41.132 40.6449 40.9685C40.4002 40.805 40.1126 40.7178 39.8183 40.7178C39.4237 40.7178 39.0453 40.8745 38.7663 41.1536C38.4872 41.4326 38.3305 41.811 38.3305 42.2056V42.2056Z" fill="#FDC4BD"/>
<path d="M38.3305 47.4224C38.3305 47.7167 38.4177 48.0043 38.5812 48.249C38.7447 48.4937 38.9771 48.6844 39.249 48.797C39.5208 48.9096 39.82 48.9391 40.1086 48.8817C40.3972 48.8243 40.6623 48.6826 40.8704 48.4745C41.0785 48.2664 41.2202 48.0013 41.2776 47.7127C41.335 47.4241 41.3055 47.1249 41.1929 46.853C41.0803 46.5812 40.8896 46.3488 40.6449 46.1853C40.4002 46.0218 40.1126 45.9346 39.8183 45.9346C39.4237 45.9346 39.0453 46.0913 38.7663 46.3703C38.4872 46.6494 38.3305 47.0278 38.3305 47.4224V47.4224Z" fill="#FDC4BD"/>
<path d="M38.3305 52.6392C38.3305 52.9335 38.4177 53.2211 38.5812 53.4658C38.7447 53.7105 38.9771 53.9012 39.249 54.0138C39.5208 54.1264 39.82 54.1559 40.1086 54.0985C40.3972 54.041 40.6623 53.8994 40.8704 53.6913C41.0785 53.4832 41.2202 53.2181 41.2776 52.9295C41.335 52.6409 41.3055 52.3417 41.1929 52.0698C41.0803 51.798 40.8896 51.5656 40.6449 51.4021C40.4002 51.2386 40.1126 51.1514 39.8183 51.1514C39.6228 51.151 39.4292 51.1893 39.2485 51.2639C39.0678 51.3385 38.9037 51.4481 38.7654 51.5863C38.6272 51.7246 38.5176 51.8887 38.443 52.0694C38.3684 52.2501 38.3301 52.4437 38.3305 52.6392V52.6392Z" fill="#FDC4BD"/>
<path d="M38.3305 57.8482C38.3305 58.1425 38.4177 58.4301 38.5812 58.6748C38.7447 58.9195 38.9771 59.1102 39.249 59.2228C39.5208 59.3354 39.82 59.3649 40.1086 59.3074C40.3972 59.25 40.6623 59.1083 40.8704 58.9003C41.0785 58.6922 41.2202 58.4271 41.2776 58.1385C41.335 57.8498 41.3055 57.5507 41.1929 57.2788C41.0803 57.007 40.8896 56.7746 40.6449 56.6111C40.4002 56.4476 40.1126 56.3604 39.8183 56.3604C39.4237 56.3604 39.0453 56.5171 38.7663 56.7961C38.4872 57.0752 38.3305 57.4536 38.3305 57.8482V57.8482Z" fill="#FDC4BD"/>
<path d="M38.3305 63.0757C38.3305 63.37 38.4177 63.6577 38.5812 63.9023C38.7447 64.147 38.9771 64.3377 39.249 64.4503C39.5208 64.5629 39.82 64.5924 40.1086 64.535C40.3972 64.4776 40.6623 64.3359 40.8704 64.1278C41.0785 63.9197 41.2202 63.6546 41.2776 63.366C41.335 63.0774 41.3055 62.7782 41.1929 62.5064C41.0803 62.2345 40.8896 62.0021 40.6449 61.8386C40.4002 61.6752 40.1126 61.5879 39.8183 61.5879C39.4237 61.5879 39.0453 61.7446 38.7663 62.0237C38.4872 62.3027 38.3305 62.6811 38.3305 63.0757V63.0757Z" fill="#FDC4BD"/>
<path opacity="0.5" d="M89.0124 3.51074H102.99V32.4869H89.0124V3.51074Z" fill="#7F0D35"/>
<path d="M95.9212 8.92904C95.5201 8.92904 95.195 8.60389 95.195 8.2028C95.195 7.80171 95.5201 7.47656 95.9212 7.47656C96.3223 7.47656 96.6475 7.80171 96.6475 8.2028C96.6475 8.60389 96.3223 8.92904 95.9212 8.92904Z" fill="#FDC4BD"/>
<path d="M95.9212 28.2435C95.5201 28.2435 95.195 27.9183 95.195 27.5173C95.195 27.1162 95.5201 26.791 95.9212 26.791C96.3223 26.791 96.6475 27.1162 96.6475 27.5173C96.6475 27.9183 96.3223 28.2435 95.9212 28.2435Z" fill="#FDC4BD"/>
<path d="M95.9212 18.7259C95.5201 18.7259 95.195 18.4008 95.195 17.9997C95.195 17.5986 95.5201 17.2734 95.9212 17.2734C96.3223 17.2734 96.6475 17.5986 96.6475 17.9997C96.6475 18.4008 96.3223 18.7259 95.9212 18.7259Z" fill="#FDC4BD"/>
</g>
</g>
<defs>
<filter id="filter0_d_592_12854" x="0" y="-13" width="158" height="92" filterUnits="userSpaceOnUse" color-interpolation-filters="sRGB">
<feFlood flood-opacity="0" result="BackgroundImageFix"/>
<feColorMatrix in="SourceAlpha" type="matrix" values="0 0 0 0 0 0 0 0 0 0 0 0 0 0 0 0 0 0 127 0" result="hardAlpha"/>
<feOffset dy="-3"/>
<feGaussianBlur stdDeviation="5.5"/>
<feComposite in2="hardAlpha" operator="out"/>
<feColorMatrix type="matrix" values="0 0 0 0 0 0 0 0 0 0 0 0 0 0 0 0 0 0 0.16 0"/>
<feBlend mode="normal" in2="BackgroundImageFix" result="effect1_dropShadow_592_12854"/>
<feBlend mode="normal" in="SourceGraphic" in2="effect1_dropShadow_592_12854" result="shape"/>
</filter>
<clipPath id="clip0_592_12854">
<path d="M147 9C147 4.58172 143.418 1 139 1H11V71H139C143.418 71 147 67.4183 147 63V9Z" fill="white"/>
</clipPath>
</defs>
</svg>
