<svg width="20" height="18" viewBox="0 0 20 18" fill="none" xmlns="http://www.w3.org/2000/svg">
<path d="M1 3.25C0.585786 3.25 0.25 3.58579 0.25 4C0.25 4.41421 0.585786 4.75 1 4.75V3.25ZM6 4.75C6.41421 4.75 6.75 4.41421 6.75 4C6.75 3.58579 6.41421 3.25 6 3.25V4.75ZM19 4.75C19.4142 4.75 19.75 4.41421 19.75 4C19.75 3.58579 19.4142 3.25 19 3.25V4.75ZM14 13.25C13.5858 13.25 13.25 13.5858 13.25 14C13.25 14.4142 13.5858 14.75 14 14.75V13.25ZM19 14.75C19.4142 14.75 19.75 14.4142 19.75 14C19.75 13.5858 19.4142 13.25 19 13.25V14.75ZM1 13.25C0.585786 13.25 0.25 13.5858 0.25 14C0.25 14.4142 0.585786 14.75 1 14.75V13.25ZM12 1V1.75V1ZM14 1V0.25V1ZM14 7V6.25V7ZM12 7V7.75V7ZM6 11V11.75V11ZM8 11V10.25V11ZM8 17V16.25V17ZM6 17V17.75V17ZM1 4.75H6V3.25H1V4.75ZM17 4.75H19V3.25H17V4.75ZM14 14.75H19V13.25H14V14.75ZM1 14.75H3V13.25H1V14.75ZM12 1.75L14 1.75V0.25L12 0.25V1.75ZM14 6.25H12V7.75H14V6.25ZM12 6.25C10.7574 6.25 9.75 5.24264 9.75 4H8.25C8.25 6.07107 9.92893 7.75 12 7.75V6.25ZM16.25 4C16.25 5.24264 15.2426 6.25 14 6.25V7.75C16.0711 7.75 17.75 6.07107 17.75 4H16.25ZM14 1.75C15.2426 1.75 16.25 2.75736 16.25 4H17.75C17.75 1.92893 16.0711 0.25 14 0.25V1.75ZM12 0.25C9.92893 0.25 8.25 1.92893 8.25 4H9.75C9.75 2.75736 10.7574 1.75 12 1.75V0.25ZM6 11.75H8V10.25H6V11.75ZM8 16.25H6V17.75H8V16.25ZM6 16.25C4.75736 16.25 3.75 15.2426 3.75 14H2.25C2.25 16.0711 3.92893 17.75 6 17.75V16.25ZM10.25 14C10.25 15.2426 9.24264 16.25 8 16.25V17.75C10.0711 17.75 11.75 16.0711 11.75 14H10.25ZM8 11.75C9.24264 11.75 10.25 12.7574 10.25 14H11.75C11.75 11.9289 10.0711 10.25 8 10.25V11.75ZM6 10.25C3.92893 10.25 2.25 11.9289 2.25 14H3.75C3.75 12.7574 4.75736 11.75 6 11.75V10.25Z" fill="#1E2124"/>
</svg>
