<svg width="136" height="105" viewBox="0 0 136 105" fill="none" xmlns="http://www.w3.org/2000/svg">
<path fill-rule="evenodd" clip-rule="evenodd" d="M52.7978 67.7002L52.8057 23.9116C53.9086 24.3054 55.0195 24.7152 56.0673 25.0447C57.3987 25.4385 58.7853 25.776 60.1088 26.0573C60.5579 26.1698 60.7233 26.2903 60.7233 26.7403V66.8483C60.7233 67.7002 60.7233 67.7002 59.8882 67.7002H52.7978Z" fill="black" stroke="#DC0E19" stroke-width="1.5" stroke-miterlimit="22.93"/>
<path fill-rule="evenodd" clip-rule="evenodd" d="M83.1526 67.7002H75.3453V26.3386C77.9451 25.535 80.5528 24.8197 83.1526 24.0242V67.7002Z" fill="black" stroke="#DC0E19" stroke-width="1.5" stroke-miterlimit="22.93"/>
<path fill-rule="evenodd" clip-rule="evenodd" d="M64.1582 26.7404C66.7113 27.1528 69.3148 27.1147 71.8553 26.6279V67.7003H64.1582V26.7404Z" fill="black" stroke="#DC0E19" stroke-width="1.5" stroke-miterlimit="22.93"/>
<path fill-rule="evenodd" clip-rule="evenodd" d="M96.0572 12.1067C94.4815 13.2317 93.0162 14.3648 91.409 15.4416C86.6917 18.6182 81.4855 20.9651 76.007 22.3848C70.6625 23.7235 65.0844 23.762 59.7227 22.4973C52.7639 20.9008 46.2153 17.8198 40.5076 13.4567C40.32 13.3298 40.168 13.1553 40.0664 12.9505C40.287 13.0067 40.4524 13.1192 40.673 13.1755C47.0153 15.7843 53.6205 17.6708 60.3687 18.8007C67.9554 20.0463 75.3374 19.1463 82.5775 16.9926C87.0037 15.6997 91.3344 14.0885 95.5372 12.171L95.9784 12.0022L96.0572 12.1067Z" fill="#DC0A17"/>
<path fill-rule="evenodd" clip-rule="evenodd" d="M68.0894 16.7354C66.253 16.6608 64.4947 15.9573 63.0983 14.7385C61.7018 13.5196 60.7486 11.8565 60.3924 10.0173C60.144 8.88286 60.1334 7.7077 60.3612 6.56877C60.589 5.42985 61.0501 4.35286 61.7142 3.40833C62.3784 2.46379 63.2307 1.67302 64.2153 1.0878C65.1999 0.502581 66.2946 0.136108 67.4277 0.0123875C69.2376 -0.0899102 71.0273 0.44378 72.4982 1.52447C73.9691 2.60515 75.0324 4.16752 75.5108 5.95104C76.0762 7.91856 75.9136 10.0294 75.0538 11.8827C74.194 13.736 72.6969 15.2026 70.8468 16.0042C69.9459 16.3324 69.0177 16.5771 68.0737 16.7354H68.0894ZM63.8825 8.32168C63.8825 9.44488 64.3199 10.5221 65.0985 11.3163C65.8771 12.1105 66.9332 12.5567 68.0343 12.5567C69.1354 12.5567 70.1915 12.1105 70.9701 11.3163C71.7487 10.5221 72.1861 9.44488 72.1861 8.32168C72.193 7.1649 71.7573 6.05099 70.9717 5.21666C70.1861 4.38233 69.1126 3.89335 67.9791 3.85363C66.8604 3.90781 65.8065 4.40493 65.0415 5.2393C64.2765 6.07366 63.8607 7.17949 63.8825 8.32168Z" fill="#DC0A17"/>
<path fill-rule="evenodd" clip-rule="evenodd" d="M45.6364 81.0885C47.0703 80.8635 47.346 81.201 47.409 83.0091C47.7131 82.3806 48.1753 81.8457 48.7483 81.4588C49.3213 81.072 49.9846 80.8471 50.6706 80.8072C51.3518 80.7086 52.044 80.8828 52.6021 81.2933C53.1602 81.7038 53.5409 82.3187 53.6644 83.0091C54.0997 82.4802 54.5766 81.9884 55.0903 81.5385C55.5565 81.1733 56.1037 80.9309 56.6836 80.8328C57.2635 80.7347 57.8581 80.7839 58.415 80.976C58.9081 81.1285 59.3478 81.4225 59.6816 81.8229C60.0155 82.2233 60.2294 82.7132 60.2979 83.2341C60.3811 83.7665 60.4363 84.303 60.4633 84.8413V90.5469C60.4633 90.8282 60.6839 91.3505 60.1324 91.3988C59.5809 91.447 59.0216 91.455 58.7458 90.8282C58.6593 90.5159 58.6039 90.1955 58.5804 89.8719V85.4601C58.5895 85.0655 58.5711 84.6707 58.5252 84.2788C58.2495 82.5832 56.8629 82.0126 55.4764 83.0332C54.9596 83.4347 54.5462 83.9582 54.2718 84.5588C53.9973 85.1593 53.87 85.8189 53.9007 86.4807C53.8456 87.8388 53.9007 89.1326 53.9007 90.4987V91.3425C53.3759 91.3715 52.8499 91.3715 52.3251 91.3425C52.2148 91.3425 52.0493 91.005 52.0493 90.8362V85.4119C52.0674 84.959 52.0304 84.5055 51.939 84.0618C51.924 83.813 51.8524 83.5712 51.73 83.3555C51.6075 83.1398 51.4376 82.956 51.2335 82.8188C51.0295 82.6816 50.797 82.5948 50.5543 82.565C50.3117 82.5353 50.0656 82.5635 49.8355 82.6475C48.5041 82.985 47.8975 84.0618 47.5666 85.2994C47.4276 86.0053 47.372 86.7256 47.4011 87.445V91.3425H45.6364V81.0885Z" fill="#DB0B18"/>
<path fill-rule="evenodd" clip-rule="evenodd" d="M92.1182 81.0883C93.2841 80.9195 93.5599 81.0883 93.8356 82.3901C93.8908 82.3339 94.0011 82.2776 94.0011 82.2214C94.4513 81.6711 95.0361 81.2519 95.6963 81.0064C96.3565 80.7609 97.0686 80.6978 97.7604 80.8234C98.4522 80.9491 99.0992 81.259 99.6357 81.7218C100.172 82.1847 100.579 82.7839 100.816 83.4589C101.203 84.3851 101.383 85.3872 101.345 86.3932C101.307 87.3992 101.051 88.3841 100.595 89.277C100.301 89.8934 99.8592 90.4243 99.3111 90.8211C98.7629 91.2179 98.1258 91.4678 97.4583 91.5478C96.7907 91.6278 96.1142 91.5354 95.4908 91.279C94.8674 91.0226 94.3172 90.6106 93.8908 90.0806V94.9023C93.8908 95.4166 93.7253 95.5853 93.2841 95.5291C92.896 95.501 92.5063 95.501 92.1182 95.5291V81.0883ZM93.6938 86.2314C93.8953 87.0914 94.1941 87.9247 94.5841 88.7145C94.8035 89.1195 95.1288 89.4544 95.5238 89.6819C95.9187 89.9095 96.3679 90.0207 96.8212 90.0032C97.2745 89.9857 97.7141 89.8402 98.0911 89.5828C98.4682 89.3255 98.7677 88.9665 98.9565 88.5457C99.3371 87.8361 99.5366 87.0402 99.5366 86.2314C99.5366 85.4225 99.3371 84.6266 98.9565 83.917C98.7496 83.5172 98.4433 83.1799 98.0684 82.9389C97.6935 82.6978 97.263 82.5615 96.8202 82.5436C96.3774 82.5257 95.9377 82.6268 95.5452 82.8368C95.1528 83.0468 94.8213 83.3584 94.5841 83.7402C94.1763 84.5248 93.8767 85.3631 93.6938 86.2314Z" fill="#DB0B18"/>
<path fill-rule="evenodd" clip-rule="evenodd" d="M65.0957 91.3184H63.2128V77.0784C63.268 77.0222 63.268 76.9659 63.3231 76.9659C65.0957 76.9659 66.8683 76.8534 68.6409 77.0222C70.6341 77.1909 71.7923 78.549 72.131 80.6384C72.6273 83.6921 70.7444 85.9503 67.7034 86.0065H65.0957V91.3184ZM65.0957 84.3109H67.3174C69.476 84.3109 70.6342 82.7841 70.0827 80.6384C70.0252 80.1793 69.82 79.7527 69.4992 79.4255C69.1784 79.0982 68.7601 78.8889 68.3101 78.8303C67.2403 78.7553 66.1674 78.7365 65.0957 78.774C65.0957 78.9428 65.0406 79.1678 65.0406 79.3366C65.0957 80.9197 65.0957 82.559 65.0957 84.3109Z" fill="#DB0B18"/>
<path fill-rule="evenodd" clip-rule="evenodd" d="M84.815 91.5997C83.4046 91.5997 82.052 91.0282 81.0547 90.0109C80.0574 88.9936 79.4971 87.6139 79.4971 86.1753C79.4971 84.7367 80.0574 83.357 81.0547 82.3397C82.052 81.3225 83.4046 80.751 84.815 80.751C86.2253 80.751 87.5779 81.3225 88.5752 82.3397C89.5725 83.357 90.1328 84.7367 90.1328 86.1753C90.1328 87.6139 89.5725 88.9936 88.5752 90.0109C87.5779 91.0282 86.2253 91.5997 84.815 91.5997ZM88.1947 86.2316C88.2235 85.767 88.1614 85.3012 88.012 84.8614C87.8627 84.4215 87.6291 84.0163 87.3249 83.6694C87.0207 83.3224 86.6519 83.0406 86.2399 82.8403C85.8279 82.6401 85.3811 82.5253 84.9252 82.5028C84.2654 82.4678 83.6114 82.6453 83.0558 83.0101C82.5002 83.375 82.071 83.9088 81.8291 84.536C81.478 85.2398 81.3529 86.0384 81.4717 86.8187C81.5905 87.599 81.9471 88.3214 82.4909 88.8835C82.9299 89.3718 83.5027 89.7141 84.1349 89.866C84.7672 90.018 85.4296 89.9724 86.0361 89.7353C86.6945 89.4351 87.2502 88.9413 87.6319 88.3171C88.0137 87.693 88.2041 86.9668 88.179 86.2316H88.1947Z" fill="#DB0B18"/>
<path fill-rule="evenodd" clip-rule="evenodd" d="M38.8454 91.5997C37.798 91.606 36.7723 91.2953 35.898 90.7069C35.0238 90.1185 34.3403 89.2787 33.9341 88.2939C33.5279 87.3092 33.4171 86.2236 33.6159 85.1746C33.8147 84.1256 34.3141 83.1604 35.0509 82.401C35.7877 81.6416 36.7287 81.1222 37.755 80.9085C38.7812 80.6947 39.8466 80.7964 40.8162 81.2004C41.7858 81.6045 42.6161 82.2929 43.2021 83.1784C43.7881 84.064 44.1034 85.107 44.108 86.1754C44.1207 86.8865 43.9936 87.593 43.7343 88.2533C43.475 88.9135 43.0887 89.5141 42.5982 90.0197C42.1078 90.5252 41.523 90.9255 40.8785 91.1968C40.2339 91.4682 39.5426 91.6052 38.8454 91.5997ZM35.4656 86.2316C35.4445 86.7035 35.5155 87.175 35.6744 87.6188C35.8334 88.0625 36.0771 88.4696 36.3915 88.8165C36.7059 89.1633 37.0847 89.4431 37.506 89.6394C37.9272 89.8358 38.3825 89.9449 38.8454 89.9603C39.3111 89.9387 39.7681 89.8236 40.1901 89.6215C40.6122 89.4195 40.991 89.1345 41.3049 88.7829C41.6189 88.4314 41.8617 88.0201 42.0197 87.5726C42.1776 87.1252 42.2474 86.6504 42.2251 86.1754C42.2528 85.7027 42.1849 85.2293 42.0257 84.7846C41.8665 84.3398 41.6194 83.9331 41.2997 83.5898C40.98 83.2465 40.5946 82.9739 40.1673 82.7889C39.74 82.6039 39.28 82.5104 38.8159 82.5143C38.3517 82.5181 37.8933 82.6192 37.469 82.8114C37.0447 83.0035 36.6637 83.2825 36.3496 83.631C36.0354 83.9796 35.7948 84.3903 35.6428 84.8377C35.4907 85.285 35.4304 85.7595 35.4656 86.2316Z" fill="#DB0B18"/>
<path fill-rule="evenodd" clip-rule="evenodd" d="M18.1807 88.7708C18.4459 89.1906 18.6879 89.6252 18.9055 90.0726C17.3298 91.8808 14.084 92.162 12.0908 90.6352C9.3255 88.602 9.38065 83.692 12.1459 81.7071C12.8854 81.1762 13.7587 80.8728 14.6622 80.8329C15.5657 80.793 16.4614 81.0183 17.2432 81.4821C17.9669 82.0576 18.517 82.8295 18.8306 83.7093C19.1441 84.5891 19.2082 85.5411 19.0158 86.4564H11.9805C11.976 87.0673 12.1268 87.6689 12.4181 88.2027C12.7094 88.7365 13.1314 89.1841 13.6428 89.5021C14.9191 90.2414 16.3529 90.0726 18.1807 88.7708ZM17.188 84.9295C17.1329 83.3223 16.2426 82.3339 14.8245 82.3339C14.4784 82.3199 14.133 82.3762 13.8084 82.4996C13.4838 82.6229 13.1864 82.8107 12.9336 83.0522C12.6807 83.2937 12.4774 83.584 12.3354 83.9062C12.1935 84.2285 12.1156 84.5763 12.1065 84.9295H17.188Z" fill="#DB0B18"/>
<path fill-rule="evenodd" clip-rule="evenodd" d="M104.314 86.4565C104.31 87.0606 104.462 87.6551 104.754 88.1809C105.045 88.7067 105.467 89.1456 105.976 89.454C107.307 90.2576 108.741 90.0165 110.514 88.7709C110.798 89.2209 111.018 89.6227 111.302 90.0727C110.631 90.6969 109.822 91.1463 108.944 91.3828C108.066 91.6193 107.145 91.6357 106.26 91.4308C105.4 91.2647 104.605 90.8521 103.968 90.2415C103.33 89.631 102.876 88.8476 102.659 87.9834C102.3 86.9687 102.235 85.8701 102.471 84.8186C102.707 83.7671 103.235 82.807 103.991 82.0527C104.692 81.3836 105.577 80.9483 106.527 80.8047C107.477 80.6612 108.447 80.8162 109.309 81.2491C110.75 81.9884 111.672 84.0778 111.522 85.8859C111.467 86.336 111.302 86.3922 110.916 86.3922H105.094C104.818 86.3922 104.597 86.4485 104.306 86.4485L104.314 86.4565ZM104.479 84.9859H109.521C109.558 84.6775 109.534 84.3647 109.451 84.0659C109.367 83.7671 109.226 83.4884 109.035 83.2464C108.844 83.0043 108.607 82.8039 108.339 82.6568C108.071 82.5097 107.776 82.4191 107.473 82.3902C107.107 82.3481 106.737 82.3828 106.384 82.4924C106.032 82.6019 105.706 82.7839 105.425 83.0271C105.145 83.2704 104.916 83.5697 104.753 83.9066C104.591 84.2435 104.497 84.6108 104.479 84.9859Z" fill="#DB0B18"/>
<path fill-rule="evenodd" clip-rule="evenodd" d="M29.8798 85.6047C30.8725 87.4771 31.8179 89.3414 32.8184 91.2299C31.5421 91.6237 30.7622 91.3424 30.2107 90.2656C29.7144 89.3575 29.2732 88.4012 28.8241 87.4931C28.3751 86.5851 28.0363 86.3681 26.8309 86.5931V91.3424H24.9953V77.6972C24.9953 77.4159 24.7747 77.0221 25.3262 76.8936C25.8777 76.765 26.6025 77.0061 26.7128 77.4561C26.8074 77.7485 26.8449 78.057 26.8231 78.3642V84.1823C26.8231 84.6323 26.9333 84.8011 27.4376 84.8011C27.7467 84.8239 28.0562 84.7613 28.3335 84.6198C28.6108 84.4784 28.8456 84.2634 29.0132 83.9975C29.5726 83.1456 30.1792 82.3902 30.6755 81.45C30.767 81.2673 30.9136 81.1195 31.0938 81.0283C31.274 80.9372 31.4781 80.9075 31.6761 80.9438C32.1746 80.9721 32.6744 80.9721 33.1729 80.9438C31.9203 82.6715 30.8646 84.1984 29.8798 85.6047Z" fill="#DB0B18"/>
<path fill-rule="evenodd" clip-rule="evenodd" d="M126.688 93.3193C128.264 94.3881 129.13 94.0505 129.902 92.4112C130.065 92.0778 130.149 91.7106 130.149 91.3384C130.149 90.9661 130.065 90.5989 129.902 90.2656C128.681 87.3244 127.468 84.3912 126.302 81.4259C126.247 81.3134 126.247 81.2009 126.192 81.1446C127.578 80.7509 128.185 81.0884 128.681 82.334C129.516 84.4796 130.343 86.6815 131.179 88.9396C131.509 87.9271 131.84 87.019 132.171 86.1189C132.565 84.9296 133.006 83.8045 133.392 82.6152C133.889 81.008 134.283 80.8071 136 81.0884C135.661 81.9964 135.33 82.8965 134.944 83.8046C133.723 87.019 132.51 90.1852 131.289 93.4478C131.146 93.9029 130.908 94.3208 130.591 94.6724C130.274 95.024 129.885 95.3008 129.453 95.4837C129.02 95.6665 128.553 95.7509 128.085 95.731C127.617 95.7111 127.159 95.5874 126.743 95.3685C125.955 94.9184 125.955 94.8059 126.357 94.0104C126.456 93.7744 126.566 93.5437 126.688 93.3193Z" fill="#DB0B18"/>
<path fill-rule="evenodd" clip-rule="evenodd" d="M4.88994 78.6615H0.0684508C-0.15214 77.3597 0.131478 76.9097 1.34473 76.9097H10.3181C11.4289 76.9097 11.7598 77.3597 11.5392 78.6615H6.81224V91.3183H4.88994V78.6615Z" fill="#DB0B18"/>
<path fill-rule="evenodd" clip-rule="evenodd" d="M125.026 89.7915C125.081 89.8478 125.081 89.8478 125.081 89.904C125.246 91.5113 125.026 91.7122 123.505 91.3747C121.985 91.0371 120.897 90.1291 120.842 88.4334C120.732 85.0422 120.787 81.651 120.787 78.2678H122.615V80.1322C122.615 81.1447 122.449 81.0885 123.56 81.0885H124.774C124.829 81.201 124.884 81.201 124.884 81.2572C125.049 82.6716 125.049 82.6716 123.671 82.6716C122.292 82.6716 122.56 82.5591 122.56 83.8047V87.0753C122.591 88.996 123.088 89.5665 125.026 89.7915Z" fill="#DB0B18"/>
<path fill-rule="evenodd" clip-rule="evenodd" d="M22.7894 91.262C21.5132 91.5433 20.9617 91.1415 20.9617 89.8477V77.7534C20.9535 77.6075 20.9736 77.4614 21.0209 77.3235C21.0683 77.1856 21.1418 77.0586 21.2374 76.9498C21.4848 76.8577 21.7551 76.8519 22.006 76.9333C22.257 77.0148 22.4743 77.1788 22.624 77.3998C22.7308 77.6283 22.7872 77.8779 22.7894 78.1311V91.2459V91.262Z" fill="#DB0B18"/>
<path fill-rule="evenodd" clip-rule="evenodd" d="M115.446 83.459C116.17 81.8518 117.108 80.8071 118.936 80.9758V82.8723C116.667 83.0974 115.611 84.2867 115.501 86.6573C115.446 88.0154 115.501 89.3173 115.501 90.6754V91.3584H113.728V81.1446C115.004 80.8633 115.225 81.1446 115.446 83.459Z" fill="#DB0B18"/>
<path fill-rule="evenodd" clip-rule="evenodd" d="M73.9035 81.0884C74.5732 81.0321 75.2349 80.9759 75.4792 81.5947C75.6412 82.1649 75.7338 82.7532 75.7549 83.3465C76.4797 81.884 77.4724 80.8071 79.245 80.9357V82.7438C77.2518 82.6876 75.9755 83.9894 75.7549 86.5288C75.6446 87.8307 75.7549 89.1807 75.6998 90.4826V91.2862H73.9271L73.9035 81.0884Z" fill="#DB0B18"/>
<path d="M31.2405 104.915V100.614H30.0045V99.7382H33.3108V100.614H32.0783V104.915H31.2405Z" fill="black"/>
<path d="M34.6472 99.7382V101.642C34.7742 101.453 34.9138 101.313 35.0661 101.221C35.2208 101.127 35.3881 101.08 35.5682 101.08C35.8082 101.08 36.009 101.145 36.1706 101.274C36.3321 101.404 36.4475 101.588 36.5168 101.825C36.5676 102 36.5929 102.296 36.5929 102.715V104.915H35.7967V102.934C35.7967 102.475 35.7678 102.188 35.7101 102.072C35.6293 101.917 35.492 101.839 35.2981 101.839C35.0927 101.839 34.9323 101.924 34.8169 102.094C34.7038 102.261 34.6472 102.575 34.6472 103.037V104.915H33.8475V99.7382H34.6472Z" fill="black"/>
<path d="M39.1515 103.722L39.9443 103.888C39.8381 104.264 39.6731 104.545 39.4492 104.728C39.2253 104.909 38.953 105 38.6321 105C38.1867 105 37.8428 104.848 37.6004 104.545C37.3142 104.191 37.1711 103.697 37.1711 103.061C37.1711 102.435 37.3154 101.934 37.6039 101.557C37.8485 101.239 38.1647 101.08 38.5525 101.08C38.9841 101.08 39.3223 101.243 39.5669 101.567C39.8485 101.939 39.9893 102.488 39.9893 103.213L39.9858 103.326H37.9882C37.9928 103.623 38.0574 103.852 38.1821 104.015C38.309 104.177 38.4613 104.258 38.6391 104.258C38.8953 104.258 39.0661 104.08 39.1515 103.722ZM39.1965 102.719C39.1895 102.427 39.1284 102.208 39.013 102.062C38.8976 101.914 38.7602 101.839 38.601 101.839C38.4325 101.839 38.2905 101.916 38.1751 102.069C38.0574 102.224 37.9997 102.441 38.002 102.719H39.1965Z" fill="black"/>
<path d="M42.2501 104.915V99.7382H43.5068L44.2616 103.27L45.0094 99.7382H46.2696V104.915H45.4906V100.84L44.6632 104.915H43.853L43.0325 100.84V104.915H42.2501Z" fill="black"/>
<path d="M46.917 102.987C46.917 102.62 46.9886 102.286 47.1317 101.984C47.2748 101.683 47.4617 101.457 47.6925 101.306C47.9233 101.155 48.183 101.08 48.4715 101.08C48.9562 101.08 49.337 101.274 49.614 101.663C49.891 102.049 50.0295 102.501 50.0295 103.019C50.0295 103.405 49.9567 103.753 49.8113 104.064C49.6682 104.375 49.479 104.609 49.2436 104.767C49.0104 104.922 48.7542 105 48.475 105C48.0272 105 47.6556 104.826 47.3602 104.477C47.0647 104.129 46.917 103.632 46.917 102.987ZM47.7341 103.04C47.7341 103.419 47.8068 103.706 47.9522 103.902C48.0976 104.095 48.273 104.191 48.4784 104.191C48.6792 104.191 48.8512 104.094 48.9943 103.898C49.1374 103.703 49.2089 103.414 49.2089 103.033C49.2089 102.661 49.1362 102.377 48.9908 102.182C48.8454 101.987 48.6711 101.889 48.468 101.889C48.2672 101.889 48.0941 101.987 47.9487 102.182C47.8056 102.377 47.7341 102.663 47.7341 103.04Z" fill="black"/>
<path d="M50.3757 103.845L51.1754 103.693C51.2447 104.087 51.4593 104.283 51.8194 104.283C52.0109 104.283 52.154 104.246 52.2487 104.17C52.3433 104.095 52.3906 103.997 52.3906 103.877C52.3906 103.795 52.3699 103.73 52.3283 103.683C52.2845 103.636 52.1979 103.595 52.0686 103.559C51.4131 103.383 50.9965 103.214 50.8188 103.054C50.5972 102.854 50.4865 102.58 50.4865 102.231C50.4865 101.883 50.5949 101.604 50.8119 101.394C51.0289 101.185 51.3439 101.08 51.7571 101.08C52.1517 101.08 52.4518 101.159 52.6572 101.317C52.8626 101.472 53.0069 101.724 53.09 102.072L52.3387 102.246C52.2718 101.944 52.0825 101.794 51.7709 101.794C51.5747 101.794 51.4351 101.823 51.352 101.882C51.2689 101.938 51.2273 102.012 51.2273 102.104C51.2273 102.187 51.2654 102.255 51.3416 102.309C51.4178 102.366 51.6543 102.45 52.0513 102.563C52.4968 102.691 52.7992 102.845 52.9584 103.026C53.1154 103.207 53.1938 103.449 53.1938 103.75C53.1938 104.113 53.0715 104.412 52.8269 104.647C52.5845 104.882 52.2487 105 51.8194 105C51.4293 105 51.1108 104.902 50.8638 104.707C50.6169 104.509 50.4541 104.222 50.3757 103.845Z" fill="black"/>
<path d="M55.2677 101.165V101.956H54.7241V103.467C54.7241 103.795 54.7322 103.984 54.7483 104.036C54.7806 104.13 54.8464 104.177 54.9457 104.177C55.0195 104.177 55.1257 104.145 55.2642 104.082L55.3334 104.852C55.1488 104.951 54.9399 105 54.7068 105C54.5037 105 54.341 104.951 54.2186 104.852C54.0963 104.753 54.0144 104.61 53.9728 104.424C53.9405 104.288 53.9243 104.01 53.9243 103.591V101.956H53.5574V101.165H53.9243V100.42L54.7241 99.8406V101.165H55.2677Z" fill="black"/>
<path d="M57.4523 104.915V99.7382H58.8025C59.3056 99.7382 59.6345 99.7629 59.7892 99.8124C60.0362 99.8924 60.2393 100.063 60.3985 100.324C60.5601 100.586 60.6409 100.922 60.6409 101.334C60.6409 101.709 60.5716 102.023 60.4331 102.277C60.2947 102.529 60.1215 102.707 59.9138 102.811C59.7061 102.912 59.3483 102.962 58.8406 102.962H58.2901V104.915H57.4523ZM58.2901 100.614V102.083H58.754C59.0656 102.083 59.2768 102.061 59.3876 102.016C59.5007 101.971 59.593 101.891 59.6646 101.776C59.7361 101.658 59.7719 101.515 59.7719 101.345C59.7719 101.173 59.7349 101.028 59.6611 100.911C59.5872 100.793 59.4961 100.714 59.3876 100.674C59.2791 100.634 59.0494 100.614 58.6986 100.614H58.2901Z" fill="black"/>
<path d="M62.0915 104.915H61.2917V101.165H62.0326V101.698C62.1596 101.449 62.2727 101.284 62.3719 101.204C62.4735 101.121 62.59 101.08 62.7216 101.08C62.9039 101.08 63.0782 101.143 63.2444 101.267L62.9951 102.133C62.8636 102.024 62.7389 101.97 62.6212 101.97C62.5104 101.97 62.4123 102.012 62.3269 102.097C62.2438 102.18 62.1838 102.33 62.1469 102.549C62.11 102.768 62.0915 103.171 62.0915 103.757V104.915Z" fill="black"/>
<path d="M65.339 103.722L66.1318 103.888C66.0256 104.264 65.8606 104.545 65.6367 104.728C65.4128 104.909 65.1405 105 64.8197 105C64.3742 105 64.0303 104.848 63.7879 104.545C63.5017 104.191 63.3586 103.697 63.3586 103.061C63.3586 102.435 63.5029 101.934 63.7914 101.557C64.0361 101.239 64.3523 101.08 64.74 101.08C65.1716 101.08 65.5098 101.243 65.7544 101.567C66.036 101.939 66.1768 102.488 66.1768 103.213L66.1733 103.326H64.1757C64.1803 103.623 64.2449 103.852 64.3696 104.015C64.4965 104.177 64.6489 104.258 64.8266 104.258C65.0828 104.258 65.2536 104.08 65.339 103.722ZM65.384 102.719C65.3771 102.427 65.3159 102.208 65.2005 102.062C65.0851 101.914 64.9478 101.839 64.7885 101.839C64.62 101.839 64.4781 101.916 64.3627 102.069C64.2449 102.224 64.1872 102.441 64.1895 102.719H65.384Z" fill="black"/>
<path d="M66.4746 101.165H66.9177V100.882C66.9177 100.541 66.9489 100.294 67.0112 100.141C67.0758 99.9877 67.1785 99.8677 67.3193 99.7806C67.4624 99.6935 67.6378 99.6499 67.8456 99.6499C68.0717 99.6499 68.2933 99.6923 68.5103 99.777L68.4064 100.469C68.2772 100.432 68.1537 100.413 68.036 100.413C67.9229 100.413 67.8409 100.446 67.7902 100.512C67.7394 100.578 67.714 100.707 67.714 100.9V101.165H68.3095V101.945H67.714V104.915H66.9177V101.945H66.4746V101.165Z" fill="black"/>
<path d="M70.5114 103.722L71.3042 103.888C71.198 104.264 71.033 104.545 70.8091 104.728C70.5853 104.909 70.3129 105 69.9921 105C69.5466 105 69.2027 104.848 68.9604 104.545C68.6742 104.191 68.5311 103.697 68.5311 103.061C68.5311 102.435 68.6753 101.934 68.9638 101.557C69.2085 101.239 69.5247 101.08 69.9124 101.08C70.3441 101.08 70.6822 101.243 70.9268 101.567C71.2084 101.939 71.3492 102.488 71.3492 103.213L71.3458 103.326H69.3481C69.3527 103.623 69.4174 103.852 69.542 104.015C69.6689 104.177 69.8213 104.258 69.999 104.258C70.2552 104.258 70.426 104.08 70.5114 103.722ZM70.5564 102.719C70.5495 102.427 70.4883 102.208 70.3729 102.062C70.2575 101.914 70.1202 101.839 69.9609 101.839C69.7924 101.839 69.6505 101.916 69.5351 102.069C69.4174 102.224 69.3597 102.441 69.362 102.719H70.5564Z" fill="black"/>
<path d="M72.7618 104.915H71.962V101.165H72.7029V101.698C72.8299 101.449 72.943 101.284 73.0422 101.204C73.1438 101.121 73.2603 101.08 73.3919 101.08C73.5742 101.08 73.7485 101.143 73.9147 101.267L73.6654 102.133C73.5338 102.024 73.4092 101.97 73.2915 101.97C73.1807 101.97 73.0826 102.012 72.9972 102.097C72.9141 102.18 72.8541 102.33 72.8172 102.549C72.7802 102.768 72.7618 103.171 72.7618 103.757V104.915Z" fill="black"/>
<path d="M75.026 104.915H74.2263V101.165H74.9671V101.698C75.0941 101.449 75.2072 101.284 75.3064 101.204C75.408 101.121 75.5245 101.08 75.6561 101.08C75.8384 101.08 76.0127 101.143 76.1789 101.267L75.9296 102.133C75.7981 102.024 75.6734 101.97 75.5557 101.97C75.4449 101.97 75.3468 102.012 75.2614 102.097C75.1783 102.18 75.1183 102.33 75.0814 102.549C75.0445 102.768 75.026 103.171 75.026 103.757V104.915Z" fill="black"/>
<path d="M78.2735 103.722L79.0663 103.888C78.9601 104.264 78.7951 104.545 78.5712 104.728C78.3473 104.909 78.075 105 77.7542 105C77.3087 105 76.9648 104.848 76.7224 104.545C76.4362 104.191 76.2931 103.697 76.2931 103.061C76.2931 102.435 76.4374 101.934 76.7259 101.557C76.9706 101.239 77.2868 101.08 77.6745 101.08C78.1061 101.08 78.4443 101.243 78.6889 101.567C78.9705 101.939 79.1113 102.488 79.1113 103.213L79.1078 103.326H77.1102C77.1148 103.623 77.1794 103.852 77.3041 104.015C77.431 104.177 77.5834 104.258 77.7611 104.258C78.0173 104.258 78.1881 104.08 78.2735 103.722ZM78.3185 102.719C78.3116 102.427 78.2504 102.208 78.135 102.062C78.0196 101.914 77.8823 101.839 77.723 101.839C77.5545 101.839 77.4126 101.916 77.2972 102.069C77.1794 102.224 77.1217 102.441 77.1241 102.719H78.3185Z" fill="black"/>
<path d="M82.525 104.915H81.7806V104.364C81.6583 104.576 81.514 104.735 81.3478 104.841C81.1817 104.947 81.0109 105 80.8354 105C80.4985 105 80.2042 104.829 79.9526 104.488C79.7033 104.144 79.5787 103.655 79.5787 103.019C79.5787 102.379 79.701 101.896 79.9457 101.571C80.1903 101.244 80.4915 101.08 80.8493 101.08C81.0178 101.08 81.1747 101.124 81.3201 101.211C81.4679 101.298 81.6029 101.429 81.7252 101.603V99.7382H82.525V104.915ZM80.3958 102.959C80.3958 103.298 80.4235 103.551 80.4789 103.718C80.5366 103.883 80.6173 104.008 80.7212 104.092C80.8274 104.175 80.9462 104.216 81.0778 104.216C81.2532 104.216 81.4055 104.12 81.5348 103.927C81.6641 103.733 81.7287 103.443 81.7287 103.054C81.7287 102.623 81.6652 102.314 81.5383 102.125C81.4136 101.935 81.2544 101.839 81.0605 101.839C80.8758 101.839 80.7189 101.932 80.5896 102.118C80.4604 102.304 80.3958 102.585 80.3958 102.959Z" fill="black"/>
<path d="M84.9346 104.915V99.7382H86.2848C86.788 99.7382 87.1169 99.7629 87.2715 99.8124C87.5185 99.8924 87.7216 100.063 87.8809 100.324C88.0424 100.586 88.1232 100.922 88.1232 101.334C88.1232 101.709 88.054 102.023 87.9155 102.277C87.777 102.529 87.6039 102.707 87.3962 102.811C87.1884 102.912 86.8307 102.962 86.3229 102.962H85.7724V104.915H84.9346ZM85.7724 100.614V102.083H86.2364C86.548 102.083 86.7591 102.061 86.8699 102.016C86.983 101.971 87.0754 101.891 87.1469 101.776C87.2185 101.658 87.2542 101.515 87.2542 101.345C87.2542 101.173 87.2173 101.028 87.1434 100.911C87.0696 100.793 86.9784 100.714 86.8699 100.674C86.7615 100.634 86.5318 100.614 86.181 100.614H85.7724Z" fill="black"/>
<path d="M89.4042 102.309L88.6806 102.147C88.7683 101.768 88.9126 101.496 89.1134 101.331C89.3165 101.164 89.6073 101.08 89.9858 101.08C90.3228 101.08 90.5802 101.128 90.7579 101.225C90.9356 101.321 91.0626 101.453 91.1387 101.62C91.2149 101.785 91.253 102.087 91.253 102.525L91.2461 103.683C91.2461 104.008 91.2588 104.25 91.2841 104.41C91.3095 104.568 91.3568 104.736 91.4261 104.915H90.6367L90.5329 104.506C90.3967 104.67 90.2501 104.794 90.0932 104.876C89.9385 104.959 89.7735 105 89.5981 105C89.305 105 89.0649 104.9 88.878 104.7C88.691 104.497 88.5975 104.229 88.5975 103.895C88.5975 103.683 88.6356 103.498 88.7118 103.34C88.788 103.183 88.8953 103.057 89.0338 102.962C89.1722 102.868 89.3938 102.785 89.6985 102.712C90.0678 102.625 90.3251 102.543 90.4705 102.468C90.4705 102.261 90.4555 102.125 90.4255 102.062C90.3978 101.996 90.3448 101.943 90.2663 101.903C90.1901 101.861 90.0816 101.839 89.9408 101.839C89.7977 101.839 89.6846 101.872 89.6016 101.938C89.5208 102.004 89.455 102.128 89.4042 102.309ZM90.4705 103.114C90.369 103.157 90.2109 103.206 89.9962 103.263C89.7493 103.329 89.5877 103.402 89.5115 103.482C89.4354 103.562 89.3973 103.665 89.3973 103.792C89.3973 103.936 89.4388 104.057 89.5219 104.156C89.6073 104.253 89.7135 104.301 89.8404 104.301C89.9535 104.301 90.0655 104.262 90.1763 104.184C90.2871 104.104 90.3632 104.01 90.4048 103.902C90.4486 103.794 90.4705 103.597 90.4705 103.312V103.114Z" fill="black"/>
<path d="M92.8075 104.915H92.0077V101.165H92.7486V101.698C92.8756 101.449 92.9887 101.284 93.0879 101.204C93.1895 101.121 93.306 101.08 93.4376 101.08C93.6199 101.08 93.7942 101.143 93.9604 101.267L93.7111 102.133C93.5795 102.024 93.4549 101.97 93.3372 101.97C93.2264 101.97 93.1283 102.012 93.0429 102.097C92.9598 102.18 92.8998 102.33 92.8629 102.549C92.8259 102.768 92.8075 103.171 92.8075 103.757V104.915Z" fill="black"/>
<path d="M95.6845 101.165V101.956H95.141V103.467C95.141 103.795 95.149 103.984 95.1652 104.036C95.1975 104.13 95.2633 104.177 95.3625 104.177C95.4364 104.177 95.5426 104.145 95.681 104.082L95.7503 104.852C95.5656 104.951 95.3568 105 95.1236 105C94.9205 105 94.7578 104.951 94.6355 104.852C94.5132 104.753 94.4312 104.61 94.3897 104.424C94.3574 104.288 94.3412 104.01 94.3412 103.591V101.956H93.9742V101.165H94.3412V100.42L95.141 99.8406V101.165H95.6845Z" fill="black"/>
<path d="M98.9874 104.915H98.1876V103.001C98.1876 102.618 98.1726 102.362 98.1426 102.235C98.1126 102.108 98.0561 102.01 97.973 101.942C97.8922 101.874 97.7999 101.839 97.696 101.839C97.5621 101.839 97.441 101.884 97.3325 101.974C97.224 102.061 97.1478 102.182 97.104 102.337C97.0601 102.493 97.0382 102.786 97.0382 103.217V104.915H96.2384V101.165H96.9793V101.716C97.1109 101.504 97.2586 101.345 97.4225 101.239C97.5887 101.133 97.7722 101.08 97.973 101.08C98.2061 101.08 98.4023 101.143 98.5615 101.267C98.7231 101.39 98.8339 101.549 98.8939 101.744C98.9562 101.937 98.9874 102.217 98.9874 102.585V104.915Z" fill="black"/>
<path d="M101.546 103.722L102.339 103.888C102.233 104.264 102.068 104.545 101.844 104.728C101.62 104.909 101.347 105 101.027 105C100.581 105 100.237 104.848 99.9949 104.545C99.7087 104.191 99.5656 103.697 99.5656 103.061C99.5656 102.435 99.7098 101.934 99.9983 101.557C100.243 101.239 100.559 101.08 100.947 101.08C101.379 101.08 101.717 101.243 101.961 101.567C102.243 101.939 102.384 102.488 102.384 103.213L102.38 103.326H100.383C100.387 103.623 100.452 103.852 100.576 104.015C100.703 104.177 100.856 104.258 101.033 104.258C101.29 104.258 101.46 104.08 101.546 103.722ZM101.591 102.719C101.584 102.427 101.523 102.208 101.407 102.062C101.292 101.914 101.155 101.839 100.995 101.839C100.827 101.839 100.685 101.916 100.57 102.069C100.452 102.224 100.394 102.441 100.396 102.719H101.591Z" fill="black"/>
<path d="M103.796 104.915H102.997V101.165H103.737V101.698C103.864 101.449 103.977 101.284 104.077 101.204C104.178 101.121 104.295 101.08 104.426 101.08C104.609 101.08 104.783 101.143 104.949 101.267L104.7 102.133C104.568 102.024 104.444 101.97 104.326 101.97C104.215 101.97 104.117 102.012 104.032 102.097C103.949 102.18 103.889 102.33 103.852 102.549C103.815 102.768 103.796 103.171 103.796 103.757V104.915Z" fill="black"/>
</svg>
